<svg xmlns="http://www.w3.org/2000/svg" id="Download" enable-background="new 0 0 32 32" viewBox="0 0 32 32"><g><path d="m29.238 17.081c-.532-.128-1.077.197-1.21.733l-2.25 9.186h-19.556l-2.251-9.186c-.132-.536-.679-.864-1.209-.733-.537.132-.865.673-.733 1.21l2.438 9.947c.109.448.51.762.971.762h21.125c.461 0 .861-.314.972-.762l2.438-9.947c.13-.537-.199-1.078-.735-1.21z" fill="#ffffff"/><path d="m16 20.916c.552 0 1-.447 1-1v-15.916c0-.552-.448-1-1-1s-1 .448-1 1v15.916c0 .553.448 1 1 1z" fill="#ffffff"/><path d="m15.374 25.047c.183.147.405.221.626.221s.443-.073.626-.221l5.417-4.352c.431-.346.499-.975.153-1.405-.346-.432-.976-.501-1.405-.153l-4.791 3.847-4.79-3.848c-.431-.346-1.06-.277-1.406.153-.346.431-.277 1.06.153 1.405z" fill="#ffffff"/></g></svg>