<svg xmlns="http://www.w3.org/2000/svg" id="Layer_1" enable-background="new 0 0 512 512" viewBox="0 0 512 512"><path d="m210.262 362.237c-32.155 0-58.316 26.173-58.316 58.343 0 32.155 26.161 58.316 58.316 58.316s58.316-26.161 58.316-58.316c0-32.17-26.161-58.343-58.316-58.343zm0 86.725c-15.65 0-28.382-12.732-28.382-28.382 0-15.665 12.732-28.409 28.382-28.409s28.382 12.744 28.382 28.409c0 15.65-12.732 28.382-28.382 28.382zm178.38-86.725c-32.155 0-58.316 26.173-58.316 58.343 0 32.155 26.161 58.316 58.316 58.316s58.316-26.161 58.316-58.316c0-32.17-26.161-58.343-58.316-58.343zm0 86.725c-15.65 0-28.382-12.732-28.382-28.382 0-15.665 12.732-28.409 28.382-28.409s28.382 12.744 28.382 28.409c0 15.65-12.732 28.382-28.382 28.382zm121.94-299.895-37.782 159.082c-5.392 22.728-25.477 38.605-48.842 38.605h-235.092c-23.267 0-43.334-15.796-48.802-38.414l-34.312-142.44-24.808-102.862h-65.977c-8.266 0-14.967-6.7-14.967-14.967s6.702-14.967 14.967-14.967h77.762c6.914 0 12.928 4.736 14.55 11.458l27.574 114.324 34.309 142.433c2.241 9.267 10.16 15.501 19.704 15.501h235.092c9.582 0 17.507-6.262 19.719-15.584l37.782-159.082c1.525-6.431.272-12.082-3.832-17.27-4.102-5.186-9.308-7.707-15.914-7.707h-278.68c-8.266 0-14.967-6.702-14.967-14.967s6.701-14.967 14.967-14.967h278.679c15.676 0 29.665 6.774 39.392 19.073 9.732 12.304 13.098 27.488 9.478 42.751z" fill="#8f1e90"/></svg>