<svg width="32" height="32" viewBox="0 0 32 32" fill="none" xmlns="http://www.w3.org/2000/svg">
<g clip-path="url(#clip0_884_415)">
<rect width="32" height="32" rx="16" fill="black"/>
<mask id="mask0_884_415" style="mask-type:luminance" maskUnits="userSpaceOnUse" x="0" y="0" width="32" height="32">
<path d="M32 0H0V32H32V0Z" fill="white"/>
</mask>
<g mask="url(#mask0_884_415)">
<path d="M13.9957 22.1614C13.91 22.0869 13.822 22.024 13.7324 21.9732C13.7205 21.971 13.7087 21.9761 13.6982 21.9878C13.6833 22.0472 13.6733 22.1114 13.6687 22.1777L13.6563 22.3555H13.3849L13.2087 19.5104H13.4961L13.5189 19.6473C13.5823 20.063 13.6779 20.4547 13.802 20.8073C13.8833 21.031 13.9872 21.2157 14.1064 21.3485C14.2204 21.4684 14.3468 21.5296 14.4748 21.5268C14.5404 21.5293 14.6056 21.5046 14.6665 21.4543C14.7275 21.404 14.783 21.3291 14.8297 21.2339C14.8796 21.1287 14.9182 21.003 14.9429 20.8648C14.9676 20.7267 14.9779 20.5794 14.9731 20.4325C14.9755 20.1305 14.922 19.8379 14.8235 19.6148C14.6791 19.3334 14.522 19.0812 14.3543 18.8619L13.9241 18.2555C13.8025 18.0871 13.6922 17.8865 13.596 17.6588L13.595 17.6567C13.4422 17.2855 13.3581 16.8142 13.3577 16.3268C13.3493 15.7444 13.4497 15.1777 13.638 14.744C13.7313 14.5343 13.8454 14.3688 13.9727 14.2592C14.0999 14.1495 14.2371 14.0981 14.3749 14.1087C14.5276 14.1213 14.678 14.1903 14.819 14.3125C14.9001 14.3837 14.9832 14.4443 15.068 14.4939C15.0862 14.4979 15.1046 14.4903 15.1207 14.472C15.1394 14.4112 15.152 14.3433 15.1577 14.2722L15.175 14.1106H15.4359L15.5656 16.9558H15.2695L15.2515 16.7962C15.2121 16.2577 15.0863 15.7622 14.8942 15.3892C14.7591 15.1503 14.5894 15.0114 14.4118 14.9944C14.3009 14.9899 14.1932 15.0718 14.1102 15.2238C14.0701 15.2987 14.0386 15.3915 14.0182 15.495C13.9978 15.5986 13.9889 15.7103 13.9922 15.8219C13.989 16.0426 14.0229 16.2589 14.0883 16.4337C14.1865 16.6747 14.3024 16.8826 14.4316 17.0499L14.8737 17.6661C15.1056 17.9619 15.3114 18.3372 15.4824 18.7758V18.78C15.6083 19.1572 15.6736 19.6068 15.6688 20.065C15.6722 20.3726 15.6447 20.6783 15.5879 20.9628C15.5312 21.2473 15.4465 21.5044 15.3391 21.7177C15.2297 21.9344 15.1004 22.1038 14.9589 22.2159C14.8173 22.3279 14.6664 22.3804 14.5149 22.3701C14.3373 22.3662 14.1616 22.2954 13.9964 22.1612L13.9957 22.1614ZM2.466 22.3565L1.20194 15.9767C1.15003 15.6469 1.07266 15.3365 0.972816 15.0577C0.911588 14.9495 0.833702 14.89 0.753149 14.8899L0.666016 14.8765V14.273H2.19076V14.904L2.09851 14.9068C2.02112 14.8999 1.94363 14.9151 1.86825 14.952C1.85098 14.9594 1.83568 14.9799 1.82541 15.0095C1.81513 15.0391 1.81062 15.0756 1.81278 15.1118C1.81697 15.2192 1.82935 15.3246 1.84946 15.424C1.87736 15.5864 1.93077 15.8652 2.00821 16.2523L2.70094 19.7454L3.33547 15.9365C3.36554 15.7553 3.38864 15.5986 3.40378 15.4755C3.41587 15.3914 3.42292 15.3044 3.42475 15.2167C3.42834 15.166 3.42377 15.1141 3.41171 15.0693C3.39965 15.0244 3.38078 14.989 3.35802 14.9685C3.29003 14.9227 3.2187 14.9016 3.14722 14.9061L3.05611 14.9V14.2725H4.27155V14.8626L4.19184 14.888C4.12337 14.898 4.05781 14.9492 4.00326 15.0353C3.90872 15.2631 3.84006 15.5317 3.80236 15.8214L2.6671 22.3558L2.466 22.3565ZM29.7732 22.2231V21.6113L29.859 21.5958C30.1131 21.5487 30.1675 21.4407 30.1758 21.4193C30.1841 21.3979 30.2273 21.2565 30.2273 20.6454V16.5212L29.0947 22.2243H28.9056L27.7946 16.7654V20.34C27.7946 21.0777 27.8535 21.3271 27.8888 21.4101C27.9058 21.4492 27.9685 21.544 28.1826 21.5965L28.2661 21.6172V22.224H26.8984V21.616L26.9823 21.5965C27.22 21.5414 27.2955 21.4214 27.3187 21.3544C27.339 21.2974 27.3862 21.085 27.3862 20.3393V15.7172C27.3862 15.2424 27.3463 15.1054 27.3293 15.0673C27.3151 15.0365 27.2496 14.9337 26.9991 14.9064L26.9101 14.8965V14.273H28.0577L29.1593 19.7066L30.2124 14.273H31.3686V14.8925L31.2816 14.9064C31.0609 14.9426 30.9976 15.0356 30.9809 15.0746C30.968 15.1036 30.9267 15.2362 30.9267 15.7177V20.7788C30.9267 21.273 30.9666 21.3951 30.9788 21.4231C30.9961 21.4593 31.0603 21.5518 31.2831 21.596L31.3683 21.6132V22.225L29.7732 22.2231ZM24.2227 22.2231V21.6127L24.3078 21.5958C24.3942 21.5899 24.4798 21.5595 24.5623 21.5054C24.5698 21.4671 24.5729 21.4255 24.5712 21.3843C24.5678 21.3028 24.5606 21.2222 24.5496 21.1435C24.5329 21.0023 24.5116 20.8636 24.4856 20.7285L24.3014 19.7621H23.1104C22.9946 20.421 22.9241 20.833 22.9008 20.984C22.8823 21.0875 22.8713 21.1959 22.8679 21.3059C22.8679 21.4419 22.8917 21.4871 22.9173 21.5146C22.9841 21.5644 23.0544 21.5917 23.1255 21.5955L23.211 21.6118V22.2235H22.0274V21.6177L22.1102 21.5963C22.1549 21.5908 22.1984 21.5653 22.2377 21.5214C22.2771 21.4776 22.3113 21.4165 22.338 21.3424C22.4665 20.8662 22.5737 20.3668 22.6583 19.8504L23.7315 14.1384H23.9526L23.9772 14.265L25.2293 20.7151C25.269 20.9748 25.3288 21.2196 25.4062 21.44C25.4643 21.5333 25.5348 21.5876 25.6083 21.5958L25.688 21.6212V22.2221L24.2227 22.2231ZM23.2752 18.8779H24.1509L23.7102 16.5047L23.2752 18.8779ZM19.1829 22.2231V21.6144L19.2671 21.5955C19.5162 21.5398 19.569 21.4379 19.5771 21.4181C19.582 21.4061 19.6252 21.2826 19.6252 20.645V18.645H18.2875V20.7779C18.2875 21.2706 18.3289 21.397 18.3416 21.4238C18.3596 21.4619 18.4251 21.5551 18.6459 21.5948L18.732 21.6104V22.2221H17.1483V21.6153L17.2318 21.5951C17.4799 21.5341 17.534 21.432 17.5423 21.4139C17.5471 21.4024 17.5904 21.2817 17.5904 20.6457V15.7163C17.5904 15.2313 17.5487 15.1 17.5358 15.0725C17.5185 15.0337 17.4545 14.9403 17.2352 14.905L17.1484 14.8911V14.272H18.732V14.8915L18.6452 14.9054C18.4255 14.9417 18.3605 15.0353 18.3428 15.0739C18.3298 15.1021 18.2878 15.2322 18.2878 15.7165V17.7217H19.6254V15.7165C19.6254 15.2308 19.5842 15.1003 19.5718 15.0716C19.5549 15.0332 19.4921 14.9402 19.2704 14.9052L19.1837 14.8913V14.2718H20.7673V14.8913L20.6805 14.9052C20.4611 14.9414 20.397 15.0344 20.3798 15.0727C20.367 15.1014 20.3254 15.2315 20.3254 15.7165V20.7777C20.3254 21.2704 20.3657 21.3939 20.3783 21.4207C20.3959 21.457 20.4609 21.5506 20.6825 21.5948L20.7677 21.612V22.2224L19.1829 22.2231ZM10.1637 22.2231V21.6094L10.2504 21.5953C10.3713 21.6057 10.4913 21.5488 10.5979 21.4306C10.6035 21.421 10.6523 21.3219 10.6523 20.7781V15.7172C10.6523 15.2231 10.6068 15.0951 10.5932 15.0675C10.5732 15.028 10.5002 14.933 10.2527 14.9059L10.1638 14.8965V14.273H11.8378V14.8977L11.7488 14.9071C11.5014 14.9339 11.4285 15.029 11.4083 15.0687C11.3946 15.0963 11.3493 15.2245 11.3493 15.7184V20.78C11.3493 21.3212 11.3974 21.4224 11.4038 21.4325C11.5104 21.5506 11.6304 21.6075 11.7512 21.5972L11.838 21.6113V22.225L10.1637 22.2231ZM7.99687 22.2231L7.96887 22.1412L6.80058 18.7275L6.65845 18.7417V20.7781C6.65845 21.2904 6.70264 21.405 6.71164 21.4226C6.80618 21.5437 6.91603 21.6039 7.0272 21.5955L7.11261 21.6122V22.224H5.529V21.6139L5.61372 21.596C5.85286 21.5457 5.90355 21.4372 5.91129 21.4148C5.92268 21.3831 5.96094 21.2337 5.96094 20.6442V15.7172C5.96094 15.2398 5.92006 15.1075 5.90754 15.0786C5.89148 15.0398 5.82907 14.9452 5.61475 14.9061L5.52889 14.8901V14.2739H7.01421C7.27264 14.2588 7.52997 14.3484 7.77172 14.5377C7.9568 14.6843 8.11575 14.9444 8.22724 15.2831C8.33432 15.6401 8.38823 16.0543 8.38224 16.4741C8.38987 16.746 8.36894 17.018 8.32088 17.2715C8.27281 17.525 8.19875 17.7541 8.10379 17.9428C8.01092 18.1138 7.9053 18.2526 7.79099 18.3539C7.71362 18.423 7.63362 18.4789 7.55183 18.521L8.48916 21.1308C8.53359 21.2636 8.5895 21.3782 8.65406 21.469C8.71804 21.5432 8.78917 21.5874 8.86236 21.5984L8.94663 21.6172V22.2257L7.99687 22.2231ZM6.66643 15.1643C6.65984 15.2124 6.65707 15.2625 6.65823 15.3125V17.8988C6.8786 17.8944 7.09716 17.8165 7.3055 17.668C7.41216 17.5765 7.50194 17.4172 7.56184 17.2132C7.62204 16.9837 7.65142 16.7251 7.64692 16.4643C7.65115 16.2138 7.62492 15.9652 7.57063 15.7412C7.51951 15.5499 7.4401 15.3974 7.34401 15.3061C7.19567 15.176 7.03515 15.116 6.87415 15.1304C6.80452 15.1221 6.73467 15.1336 6.66654 15.1645L6.66643 15.1643Z" fill="#9A239F"/>
<path d="M12.13 30.1548C12.2066 30.1575 12.2807 30.0984 12.3366 29.9901C12.3764 29.8043 12.3921 29.6001 12.3821 29.3979V26.8068L12.3466 26.7127C12.3216 26.6356 12.2885 26.5712 12.2497 26.5245C12.2113 26.4961 12.1707 26.482 12.1299 26.4828V26.3739H12.5748L13.5752 29.2014V27.236C13.5872 27.0169 13.5648 26.7956 13.5111 26.605C13.4578 26.5224 13.3926 26.479 13.326 26.4817V26.3739H13.9358V26.4826C13.8621 26.4826 13.7913 26.5412 13.738 26.6461C13.695 26.8298 13.6779 27.0346 13.6884 27.2374V30.3292H13.644L12.4969 27.1078V29.3972C12.4849 29.6149 12.5067 29.8349 12.5591 30.0254C12.611 30.1086 12.6747 30.1539 12.7404 30.1544V30.2605H12.1306L12.13 30.1548ZM14.85 28.6725C14.7655 28.7326 14.6848 28.8135 14.6097 28.9134C14.5579 28.97 14.514 29.053 14.4821 29.1545C14.4502 29.256 14.4314 29.3727 14.4275 29.4934C14.4247 29.5654 14.4301 29.6377 14.4433 29.7046C14.4565 29.7714 14.4772 29.8309 14.5036 29.8781C14.5348 29.9305 14.5737 29.9589 14.6139 29.9586C14.6713 29.9575 14.7272 29.9205 14.7742 29.8525C14.7972 29.8253 14.8164 29.7861 14.8299 29.7388C14.8434 29.6915 14.8506 29.6377 14.8509 29.5828L14.85 28.6725ZM14.2009 29.6911C14.2012 29.5529 14.2182 29.4171 14.2503 29.2959C14.2824 29.1747 14.3286 29.072 14.3848 28.997C14.5319 28.8103 14.6875 28.6538 14.8493 28.5294V28.2854C14.8534 28.1475 14.8448 28.0092 14.824 27.8779C14.8074 27.8118 14.7813 27.7579 14.7493 27.7236C14.7173 27.6892 14.681 27.6759 14.6452 27.6857C14.6017 27.6859 14.559 27.7118 14.5223 27.7603C14.5043 27.7816 14.4894 27.8125 14.4791 27.8497C14.4689 27.887 14.4636 27.9292 14.4639 27.972C14.4648 28.0111 14.4669 28.05 14.4703 28.0885C14.4734 28.1231 14.4756 28.1581 14.4767 28.1932C14.4789 28.2357 14.4757 28.2786 14.4675 28.3179C14.4593 28.3571 14.4463 28.3912 14.4298 28.417C14.4107 28.4424 14.3883 28.4551 14.3657 28.4532C14.3489 28.455 14.3321 28.4483 14.3168 28.4336C14.3016 28.4188 14.2883 28.3966 14.2782 28.3687C14.2582 28.3147 14.2475 28.2485 14.2478 28.1805C14.2515 28.0987 14.2631 28.0194 14.2819 27.9471C14.3008 27.8749 14.3265 27.8112 14.3576 27.76C14.4464 27.6018 14.562 27.5228 14.679 27.5403C14.7457 27.5251 14.8131 27.5515 14.8725 27.6162C14.932 27.6809 14.9806 27.7809 15.0123 27.9033C15.0481 28.0862 15.0641 28.283 15.0592 28.48V29.6306C15.0575 29.7077 15.0609 29.7849 15.0693 29.86C15.0724 29.8925 15.0809 29.9216 15.0935 29.9421C15.106 29.9626 15.1217 29.9732 15.1377 29.972C15.1542 29.9733 15.1707 29.9664 15.1857 29.952C15.209 29.9234 15.2311 29.8908 15.2518 29.8546V30.004C15.2271 30.0737 15.1976 30.1356 15.1643 30.1878C15.1233 30.2556 15.0726 30.2937 15.0201 30.2965C14.9957 30.3006 14.9712 30.2911 14.9491 30.2689C14.9271 30.2467 14.9083 30.2127 14.8949 30.1704C14.8681 30.0795 14.8535 29.9756 14.8524 29.8692C14.8016 29.9732 14.7465 30.0677 14.6876 30.1515C14.6233 30.246 14.5471 30.2998 14.4683 30.3064C14.4327 30.3066 14.3974 30.2913 14.3649 30.2613C14.3323 30.2314 14.3032 30.1876 14.2795 30.1327C14.2529 30.0735 14.2323 30.004 14.2188 29.9283C14.2053 29.8526 14.1991 29.7722 14.2007 29.6915L14.2009 29.6911ZM16.0486 27.6165V27.8231H15.7898L15.7873 29.4755C15.7853 29.5864 15.7907 29.6972 15.8034 29.805C15.8088 29.8616 15.8237 29.9125 15.8455 29.9487C15.8673 29.9849 15.8946 30.0041 15.9225 30.0028C15.9509 30.0043 15.9788 29.9872 16.0022 29.9539C16.0308 29.9091 16.0566 29.8571 16.079 29.7991L16.112 29.8621L16.0841 29.948C16.0489 30.0644 16.0009 30.162 15.9439 30.2327C15.9008 30.2848 15.852 30.3134 15.802 30.316C15.7567 30.3207 15.712 30.2935 15.6751 30.2387C15.6383 30.184 15.6115 30.1051 15.5992 30.0148C15.5771 29.8682 15.5673 29.7149 15.5701 29.5614V27.8214H15.4315C15.4279 27.8169 15.4247 27.8112 15.422 27.8045C15.4197 27.7976 15.4186 27.7893 15.4188 27.781C15.4184 27.7652 15.4204 27.7496 15.4246 27.7365C15.4359 27.7108 15.448 27.6866 15.4608 27.664C15.5062 27.5826 15.5484 27.4938 15.587 27.3986C15.6128 27.3307 15.6735 27.1514 15.7692 26.8607C15.7759 26.8591 15.7827 26.8611 15.7889 26.8666C15.7911 26.8705 15.7921 26.8849 15.7921 26.9097V27.6155L16.0486 27.6165ZM16.6407 27.605V29.4403C16.6388 29.5468 16.6469 29.6531 16.6648 29.7532C16.6787 29.8224 16.7029 29.8806 16.7338 29.9197C16.7648 29.9587 16.8009 29.9766 16.8371 29.9706C16.8987 29.9676 16.958 29.9222 17.0057 29.8417C17.0415 29.7846 17.0735 29.7181 17.1008 29.6438V28.0718C17.1041 28.0207 17.1024 27.9688 17.0959 27.919C17.0894 27.8692 17.0782 27.8226 17.0629 27.7819C17.0173 27.7234 16.9644 27.6944 16.9108 27.6986V27.6045H17.3207V29.6243C17.3161 29.7184 17.327 29.8129 17.3518 29.8925C17.3703 29.9216 17.3915 29.9424 17.4141 29.9535C17.4367 29.9646 17.4602 29.9658 17.483 29.957V30.0374C17.4365 30.0661 17.4024 30.0876 17.3805 30.1019C17.3586 30.1162 17.3219 30.1425 17.2702 30.181C17.2481 30.1981 17.2001 30.2392 17.126 30.3043C17.125 30.3045 17.1241 30.3044 17.1232 30.3038C17.1223 30.3032 17.1214 30.3023 17.1207 30.301C17.1192 30.2982 17.1183 30.2943 17.1181 30.2901C17.1172 30.2802 17.1168 30.2701 17.1169 30.26V29.7974C17.0718 29.9256 17.019 30.0414 16.9597 30.1419C16.8954 30.2509 16.8151 30.3117 16.732 30.3141C16.6542 30.3109 16.5799 30.2474 16.5237 30.1363C16.4875 30.0589 16.4599 29.9662 16.4429 29.8646C16.4258 29.7631 16.4196 29.655 16.4248 29.548V28.0586C16.4281 28.0043 16.426 27.9491 16.4186 27.8965C16.4112 27.844 16.3987 27.795 16.3819 27.7527C16.3458 27.7088 16.3047 27.685 16.2628 27.6838V27.6033L16.6407 27.605ZM17.6788 30.1661C17.7336 30.166 17.7874 30.1334 17.8335 30.072C17.8646 29.9862 17.8782 29.8786 17.8714 29.7723V28.4781C17.8749 28.3411 17.867 28.2038 17.8481 28.0723C17.8423 28.0353 17.8308 28.0034 17.8153 27.9814C17.7999 27.9593 17.7813 27.9484 17.7626 27.9504C17.7511 27.9509 17.7397 27.9534 17.7284 27.9577C17.7144 27.9625 17.6999 27.9687 17.6847 27.9763V27.8821L17.8327 27.7645C17.8834 27.7243 17.9185 27.6957 17.9379 27.6786C17.9807 27.6424 18.0242 27.6013 18.0684 27.5553C18.0708 27.5546 18.0732 27.5557 18.0751 27.5584C18.0771 27.5611 18.0785 27.5652 18.0791 27.5699C18.0808 27.5898 18.0815 27.61 18.0811 27.6301V28.1007C18.1254 27.9553 18.178 27.8214 18.2378 27.7019C18.279 27.6137 18.3352 27.5618 18.3945 27.557C18.414 27.5554 18.4335 27.5624 18.4516 27.5774C18.4697 27.5925 18.4861 27.6152 18.4997 27.6443C18.5132 27.6735 18.5237 27.708 18.5307 27.7457C18.5376 27.7834 18.5409 27.8237 18.5402 27.864C18.5413 27.9354 18.5303 28.0054 18.5092 28.0619C18.5002 28.0871 18.4884 28.1075 18.4748 28.1215C18.4613 28.1355 18.4463 28.1427 18.4311 28.1424C18.4126 28.1397 18.3944 28.1295 18.3778 28.1122C18.3611 28.095 18.3463 28.0711 18.3341 28.0419C18.3149 27.9911 18.2878 27.9556 18.2574 27.9414C18.2278 27.9414 18.1914 27.9955 18.1483 28.1035C18.1084 28.1957 18.0857 28.3141 18.0842 28.4377V29.7318C18.0809 29.7931 18.0838 29.855 18.0925 29.914C18.1012 29.9729 18.1157 30.0276 18.135 30.0746C18.1836 30.1478 18.2439 30.1801 18.3036 30.165V30.2591H17.6797L17.6788 30.1661ZM19.2564 27.5706C19.3151 27.5704 19.3732 27.5951 19.4271 27.6433C19.481 27.6914 19.5295 27.7619 19.5696 27.8504C19.6165 27.9573 19.6526 28.0827 19.6757 28.2189C19.6988 28.3552 19.7084 28.4997 19.704 28.6438H18.899C18.8928 28.9879 18.9394 29.3272 19.0321 29.6134C19.065 29.7063 19.1079 29.7822 19.1574 29.835C19.2069 29.8878 19.2616 29.9161 19.3174 29.9177C19.3989 29.9228 19.4785 29.8668 19.5416 29.76C19.6107 29.6329 19.6679 29.4805 19.7102 29.3106L19.7547 29.345C19.7169 29.5987 19.6502 29.8299 19.56 30.0191C19.5157 30.1189 19.4617 30.1982 19.4015 30.2516C19.3412 30.3051 19.2762 30.3315 19.2107 30.3292C19.1373 30.3345 19.0646 30.2996 18.9999 30.228C18.9352 30.1565 18.8808 30.0508 18.8423 29.9217C18.7545 29.6431 18.7091 29.3166 18.7119 28.9843C18.7077 28.6271 18.7607 28.277 18.8628 27.9885C18.9066 27.8571 18.9655 27.7502 19.0342 27.6773C19.1029 27.6044 19.1792 27.5677 19.2564 27.5706ZM19.1829 27.78C19.1364 27.7789 19.0909 27.8057 19.0517 27.8572C19.0125 27.9086 18.9815 27.9826 18.9623 28.0699C18.9323 28.1922 18.9126 28.3241 18.904 28.46H19.4392C19.4351 28.3129 19.4188 28.1684 19.391 28.0327C19.3726 27.9522 19.343 27.885 19.3059 27.8398C19.2688 27.7946 19.226 27.7734 19.183 27.7791L19.1829 27.78Z" fill="#166F6E"/>
<path d="M4.98438 29.0035H10.5974" stroke="#9A239F" stroke-width="2"/>
<path d="M22.1123 29.0035H27.7253" stroke="#583981" stroke-width="2"/>
<g opacity="0.5">
<path d="M11.0175 12.8732C11.1981 12.8732 11.3446 12.5418 11.3446 12.133C11.3446 11.7241 11.1981 11.3927 11.0175 11.3927C10.8369 11.3927 10.6904 11.7241 10.6904 12.133C10.6904 12.5418 10.8369 12.8732 11.0175 12.8732Z" fill="#9A239F"/>
<path d="M11.0172 12.7556C11.1664 12.7556 11.2873 12.4768 11.2873 12.133C11.2873 11.7891 11.1664 11.5104 11.0172 11.5104C10.868 11.5104 10.7471 11.7891 10.7471 12.133C10.7471 12.4768 10.868 12.7556 11.0172 12.7556Z" stroke="#9A239F"/>
</g>
<path d="M21.3766 22.2479C21.4902 21.7983 21.5905 21.3401 21.6772 20.8754C22.0944 18.6959 22.2243 16.4225 22.0548 14.2631C21.9676 13.1439 21.7897 12.0764 21.5269 11.0956C21.4627 10.8729 21.4029 10.6521 21.3307 10.4491L21.2265 10.1398L21.1122 9.83965C20.8581 9.18844 20.5675 8.59323 20.2446 8.06238C19.882 7.46576 19.4827 6.94889 19.053 6.51994C18.7735 6.23422 18.4847 5.9772 18.1876 5.74986C17.74 5.39659 17.2733 5.11543 16.792 4.90909C16.2468 4.67078 15.6708 4.62455 15.0912 4.7726L14.9266 4.82692L14.7623 4.89897C14.6526 4.94764 14.5436 5.00696 14.4358 5.07667C14.1434 5.27124 13.8583 5.5164 13.5845 5.80874C13.3925 6.01478 13.2015 6.23133 13.0169 6.47101C12.6813 6.90467 12.3581 7.37447 12.0492 7.87762C11.8485 8.19984 11.6501 8.53725 11.4767 8.84356C11.3523 9.05799 11.2329 9.28279 11.1192 9.5171C11.0392 9.71117 11.2579 9.38033 11.6859 8.66918C11.8048 8.47347 11.9298 8.26691 12.0536 8.06827C12.2269 7.79181 12.3957 7.53598 12.5736 7.27998C12.8542 6.86717 13.146 6.48443 13.4476 6.13399C13.7645 5.77061 14.099 5.47494 14.4439 5.25334C14.8494 4.99152 15.2674 4.85675 15.6797 4.85485C15.9629 4.85221 16.2426 4.89717 16.5153 4.9892C16.7474 5.06814 16.9756 5.17107 17.1988 5.29755C17.6929 5.57078 18.1713 5.91294 18.6305 6.32139C19.3667 6.96369 20.0273 7.83942 20.5867 8.91474C20.7441 9.22595 20.8904 9.55658 21.0248 9.90494C21.0921 10.0893 21.1624 10.2666 21.2216 10.4622L21.3148 10.7505C21.3449 10.8483 21.3716 10.9519 21.4001 11.0531C21.5736 11.6604 21.7128 12.3055 21.8157 12.9793C21.9317 13.7524 22.0032 14.5559 22.0291 15.3772C22.0514 16.0546 22.0441 16.7411 22.0074 17.4301C21.9727 18.0399 21.9181 18.6498 21.844 19.2564C21.8149 19.4872 21.7763 19.7698 21.7384 20.0117C21.6513 20.5704 21.5461 21.1227 21.4236 21.6653C21.2263 22.5382 20.9904 23.3865 20.7185 24.2004C20.5118 24.8231 20.3077 25.3632 20.3819 25.2341C20.5093 24.9766 20.6246 24.6997 20.7262 24.4073C20.7703 24.2797 20.8212 24.1464 20.8647 24.01C21.0554 23.4406 21.2264 22.8519 21.3765 22.2482L21.3766 22.2479Z" fill="url(#paint0_linear_884_415)"/>
<path d="M12.2175 6.6709C12.2113 6.66811 12.2047 6.66769 12.1981 6.66964C12.168 6.67813 12.1381 6.67152 12.108 6.67558C12.0917 6.67813 12.077 6.67061 12.0615 6.67522C12.054 6.67774 12.047 6.68436 12.0395 6.68646C12.0272 6.69142 12.0147 6.69124 12.0029 6.68593C11.9894 6.68204 11.9751 6.68417 11.9614 6.69216C11.9522 6.69522 11.943 6.69729 11.9338 6.69834C11.9198 6.69862 11.9058 6.70046 11.8918 6.70385C11.8759 6.71307 11.8597 6.71899 11.8434 6.7215C11.8377 6.72077 11.8318 6.72147 11.826 6.7236C11.8176 6.72643 11.8102 6.74017 11.8018 6.74471C11.7962 6.74743 11.7905 6.74879 11.7849 6.74874C11.7744 6.74939 11.7638 6.75296 11.7536 6.75932C11.7465 6.76313 11.74 6.77025 11.7346 6.77994C11.7281 6.7929 11.7242 6.80929 11.7236 6.82601C11.7218 6.84433 11.7228 6.86266 11.7267 6.87871C11.7306 6.89477 11.7371 6.90783 11.7453 6.91627C11.7492 6.916 11.753 6.91469 11.7568 6.91239C11.7624 6.91239 11.7678 6.91337 11.7732 6.91532C11.7823 6.91297 11.7913 6.90704 11.7995 6.89793C11.8089 6.89258 11.8185 6.89018 11.8279 6.89086C11.8394 6.88699 11.8507 6.87998 11.8621 6.87526C11.8697 6.87151 11.8774 6.86892 11.885 6.86751C11.8917 6.86879 11.8982 6.87119 11.9045 6.87469C11.9189 6.87537 11.9335 6.87143 11.9477 6.86303C11.9702 6.85404 11.9928 6.84822 12.0154 6.84563C12.0217 6.84307 12.0281 6.84249 12.0342 6.8439C12.0405 6.84769 12.0469 6.8506 12.0535 6.85262C12.0635 6.85147 12.0734 6.8481 12.0832 6.84258C12.0946 6.84043 12.1059 6.83971 12.1171 6.84041L12.1443 6.84202C12.1518 6.84222 12.1607 6.84812 12.1682 6.84005C12.1715 6.83752 12.175 6.83634 12.1784 6.8366C12.186 6.83516 12.1935 6.8351 12.2008 6.83643C12.2136 6.83831 12.2267 6.83206 12.2382 6.8187C12.2447 6.80956 12.25 6.79781 12.2536 6.78452C12.2573 6.77123 12.2592 6.75681 12.2592 6.74256C12.2596 6.73218 12.259 6.72195 12.2573 6.71247C12.2555 6.70299 12.2528 6.69444 12.2491 6.68731C12.2473 6.68499 12.2453 6.68304 12.2432 6.68149C12.235 6.67624 12.2264 6.67269 12.2175 6.6709Z" fill="url(#paint1_linear_884_415)"/>
<path d="M12.4771 6.5137C12.4741 6.53106 12.4722 6.54879 12.4715 6.56649C12.4671 6.6471 12.4603 6.72771 12.4512 6.80797C12.4478 6.84866 12.4386 6.89146 12.4359 6.93377C12.4345 6.95401 12.436 6.97285 12.4344 6.99267C12.433 7.02573 12.4284 7.05873 12.4208 7.09022C12.4134 7.12678 12.409 7.16455 12.4079 7.20222C12.4058 7.22709 12.4032 7.25193 12.3999 7.27674C12.3951 7.31415 12.3873 7.35069 12.384 7.38762C12.3815 7.43045 12.3768 7.47321 12.3699 7.51534C12.3663 7.53081 12.3634 7.54671 12.3614 7.56283C12.3591 7.58543 12.3617 7.60787 12.3599 7.63035C12.3583 7.64571 12.3558 7.66089 12.3524 7.67562C12.347 7.7027 12.343 7.73035 12.3404 7.75821C12.3383 7.77642 12.3382 7.79479 12.34 7.81232C12.341 7.82155 12.3431 7.8301 12.3462 7.83743C12.3492 7.84476 12.3531 7.85072 12.3577 7.85494C12.3669 7.86431 12.3782 7.86654 12.3892 7.86116C12.4002 7.85577 12.4101 7.8432 12.4167 7.82605C12.4195 7.81553 12.4216 7.80461 12.423 7.7935C12.4261 7.77807 12.4313 7.76402 12.4344 7.74928C12.4391 7.72316 12.4414 7.6963 12.4412 7.66978C12.4438 7.64303 12.4478 7.61651 12.4533 7.59064C12.4578 7.55961 12.4596 7.52622 12.4625 7.49455C12.4643 7.4727 12.4668 7.45091 12.4699 7.42928C12.4741 7.41082 12.4785 7.39294 12.4831 7.37562C12.4907 7.33596 12.4955 7.29528 12.4974 7.25456C12.5011 7.19168 12.5084 7.12737 12.5149 7.06451C12.5162 7.04665 12.5186 7.02887 12.5219 7.01148C12.5266 6.99391 12.5307 6.97601 12.5343 6.95784C12.5371 6.93007 12.5386 6.90218 12.5387 6.87448C12.5408 6.84238 12.5438 6.8109 12.5467 6.77877L12.5554 6.70331C12.5599 6.68076 12.5619 6.65731 12.5612 6.63438C12.5606 6.62505 12.5607 6.61543 12.5616 6.60586C12.5627 6.58441 12.5644 6.56296 12.5667 6.54159C12.5707 6.50601 12.5698 6.47019 12.5641 6.43723C12.5616 6.42249 12.5564 6.41012 12.5492 6.40195C12.5421 6.39378 12.5334 6.39023 12.5244 6.39183C12.518 6.39308 12.5116 6.39699 12.5058 6.40324C12.5001 6.4095 12.4951 6.41793 12.4912 6.42786C12.4895 6.43316 12.4881 6.43869 12.487 6.44436C12.4829 6.46729 12.4794 6.49049 12.4767 6.51382L12.4771 6.5137Z" fill="url(#paint2_linear_884_415)"/>
<path d="M11.9371 6.75653C11.6798 6.68721 11.4067 6.74247 11.1452 6.91677C10.8837 7.09108 10.643 7.37833 10.447 7.74983C10.6924 7.83638 10.9573 7.78926 11.2092 7.61424C11.4612 7.43922 11.6891 7.14394 11.8651 6.76465" fill="url(#paint3_linear_884_415)"/>
<path d="M13.9806 4.45963C13.9711 4.45393 13.9611 4.45025 13.9509 4.44866C13.9036 4.44131 13.8584 4.41688 13.8117 4.40393C13.7872 4.39689 13.7638 4.38065 13.7393 4.37577L13.704 4.3743C13.6848 4.37219 13.6661 4.3649 13.6486 4.35263C13.6281 4.3406 13.6063 4.33445 13.5841 4.33438C13.5701 4.33073 13.5558 4.32742 13.5415 4.32322C13.5199 4.31689 13.4983 4.30645 13.4765 4.30322C13.451 4.30307 13.4258 4.29957 13.401 4.29274C13.3919 4.2879 13.3825 4.28469 13.3728 4.28315C13.3597 4.28223 13.346 4.29031 13.3328 4.29002C13.324 4.28902 13.3153 4.28663 13.3068 4.28288C13.2906 4.27771 13.274 4.27526 13.2571 4.27555C13.2462 4.27535 13.235 4.27901 13.2243 4.28633C13.2193 4.28975 13.2146 4.2951 13.2106 4.302C13.2065 4.30891 13.2032 4.3172 13.2009 4.32631C13.1966 4.34688 13.1963 4.36882 13.2 4.38804C13.2017 4.39719 13.2045 4.4054 13.208 4.41219C13.2116 4.41898 13.2159 4.42422 13.2208 4.42761C13.227 4.43051 13.2333 4.43222 13.2398 4.43272C13.2486 4.43541 13.2566 4.44268 13.2654 4.44516C13.2797 4.44839 13.2943 4.44798 13.3089 4.44393C13.3244 4.44482 13.3396 4.44874 13.3543 4.45563C13.3723 4.45979 13.391 4.45831 13.409 4.4601C13.4214 4.4613 13.434 4.46285 13.4463 4.46626C13.4565 4.4711 13.4666 4.47702 13.4764 4.48399C13.4987 4.49349 13.5217 4.49846 13.5451 4.49881C13.5805 4.50262 13.6175 4.5121 13.653 4.52211C13.6632 4.52367 13.6731 4.5273 13.6826 4.53295C13.6924 4.54024 13.7018 4.54765 13.712 4.55503C13.7274 4.55979 13.7432 4.56224 13.7592 4.56238C13.777 4.56599 13.7948 4.57129 13.8122 4.57783L13.855 4.59472C13.867 4.60306 13.8798 4.60724 13.8931 4.60706C13.8987 4.60624 13.9043 4.60695 13.9096 4.60916C13.9217 4.61211 13.9335 4.6163 13.9452 4.62172C13.9646 4.63101 13.9854 4.63179 14.0061 4.62401C14.0149 4.62121 14.0233 4.61294 14.0298 4.60058C14.0364 4.58822 14.0407 4.57251 14.042 4.55611C14.0427 4.54397 14.0418 4.53205 14.0395 4.52128C14.0372 4.51051 14.0335 4.50118 14.0288 4.49404C14.026 4.49057 14.023 4.48758 14.0199 4.4851C14.0073 4.47491 13.9941 4.4664 13.9806 4.45963Z" fill="url(#paint4_linear_884_415)"/>
<path d="M14.1326 4.40319C13.9751 3.93534 13.8437 3.42873 13.6645 2.99502C13.5023 2.54891 13.2522 2.24315 12.9565 2.12948C13.1156 2.39543 13.1762 2.86414 13.2772 3.23178C13.434 3.81673 13.7115 4.24348 14.0573 4.43152" fill="url(#paint5_linear_884_415)"/>
<path d="M16.164 4.42153C16.1556 4.42345 16.1473 4.4276 16.1393 4.43386C16.1021 4.46298 16.0634 4.47612 16.0265 4.50385C16.0067 4.51744 15.9866 4.52342 15.9672 4.54027C15.9581 4.54841 15.9503 4.56058 15.9413 4.56842C15.9268 4.58287 15.9114 4.59292 15.8957 4.59813C15.8779 4.6064 15.8607 4.62072 15.845 4.64035C15.8338 4.65158 15.8225 4.66196 15.812 4.67122C15.795 4.68553 15.7773 4.69708 15.7608 4.71444C15.7429 4.73744 15.7242 4.75784 15.7048 4.77545C15.697 4.78024 15.6894 4.7865 15.6821 4.79411C15.6725 4.80561 15.6652 4.82488 15.6559 4.83695C15.6494 4.8446 15.6426 4.85115 15.6355 4.85652C15.6227 4.86776 15.6105 4.88154 15.599 4.8976C15.5913 4.90764 15.5846 4.92036 15.5793 4.93493C15.5738 4.95152 15.5716 4.97079 15.5734 4.98864C15.5746 5.00685 15.5792 5.02293 15.5866 5.03395C15.594 5.04497 15.6036 5.05019 15.6137 5.04866C15.6187 5.04523 15.6235 5.04067 15.628 5.03507C15.6346 5.02867 15.642 5.02714 15.6487 5.02158C15.6595 5.01074 15.6695 4.99689 15.6783 4.98056C15.6889 4.9669 15.7002 4.95572 15.7121 4.9473C15.7254 4.93282 15.7383 4.91699 15.7508 4.89987C15.7599 4.88905 15.7694 4.87936 15.7791 4.87087C15.7873 4.86535 15.7957 4.86111 15.8042 4.85821C15.8221 4.84568 15.8393 4.82912 15.8554 4.80895C15.882 4.78093 15.9093 4.75616 15.9373 4.73482C15.9448 4.72752 15.9527 4.72236 15.9608 4.71951C15.9689 4.71792 15.9771 4.71549 15.9852 4.71224C15.9972 4.70343 16.009 4.69264 16.0203 4.68C16.0336 4.66894 16.0473 4.65923 16.0611 4.6509C16.0725 4.64389 16.0847 4.63813 16.0954 4.63263C16.1057 4.63051 16.1158 4.6244 16.1251 4.61471C16.129 4.61011 16.1332 4.60675 16.1375 4.60481C16.1466 4.59858 16.156 4.59381 16.1654 4.59054C16.1816 4.58375 16.197 4.56948 16.2103 4.54908C16.2169 4.53831 16.222 4.52462 16.2249 4.50958C16.2278 4.49453 16.2285 4.47873 16.2268 4.46399C16.2258 4.45338 16.2234 4.44365 16.2198 4.43561C16.2162 4.42756 16.2116 4.42141 16.2062 4.41765C16.2036 4.41659 16.2008 4.41598 16.198 4.41584C16.1867 4.41572 16.1754 4.41762 16.164 4.42153Z" fill="url(#paint6_linear_884_415)"/>
<path d="M18.7013 6.59513C18.6814 6.58297 18.6613 6.57239 18.6392 6.56349C18.5416 6.53127 18.4441 6.48527 18.3444 6.46622C18.2922 6.4524 18.2404 6.43763 18.1875 6.43249C18.1626 6.43321 18.1386 6.43383 18.1138 6.43451C18.071 6.43087 18.0337 6.43302 17.9922 6.42384C17.9461 6.41799 17.8993 6.42006 17.8524 6.43003L17.7589 6.44544C17.7117 6.45025 17.6638 6.45907 17.6166 6.47041L17.4557 6.52823C17.435 6.53106 17.4144 6.53627 17.3938 6.54384C17.3659 6.55612 17.3398 6.57944 17.3121 6.59356C17.293 6.60436 17.2733 6.60906 17.2541 6.61865C17.2193 6.6343 17.1844 6.6525 17.1502 6.6745C17.1285 6.68859 17.1073 6.70607 17.0869 6.72672C17.0708 6.74008 17.0573 6.76356 17.0491 6.7926C17.0427 6.83698 17.0706 6.86527 17.1185 6.84775C17.1318 6.84332 17.1454 6.83286 17.1587 6.82589C17.1775 6.81579 17.1962 6.81335 17.215 6.80579C17.2448 6.79286 17.2743 6.76822 17.3033 6.75177C17.3352 6.73485 17.3673 6.72134 17.3997 6.7113L17.5143 6.66325C17.5404 6.65454 17.5668 6.64446 17.5932 6.63816C17.6155 6.63378 17.6379 6.6316 17.6601 6.63161C17.7088 6.62611 17.7574 6.61327 17.8059 6.60401C17.8825 6.58999 17.9591 6.58429 18.0351 6.58695C18.0566 6.58592 18.078 6.58797 18.0989 6.59308C18.1206 6.59892 18.1421 6.60422 18.1639 6.60981C18.1955 6.61699 18.2308 6.6147 18.2632 6.61887C18.3004 6.62309 18.3372 6.63362 18.3743 6.64508C18.4045 6.65251 18.4342 6.665 18.4641 6.67529C18.49 6.68773 18.5165 6.69737 18.5433 6.70414C18.5545 6.70615 18.5655 6.70952 18.5763 6.71423C18.6014 6.7216 18.6262 6.7316 18.6504 6.74418C18.6897 6.76457 18.7301 6.77931 18.7712 6.78828C18.8032 6.79364 18.8361 6.77843 18.8348 6.74293C18.8332 6.72544 18.8293 6.70932 18.8235 6.69579C18.8177 6.68227 18.8102 6.67171 18.8015 6.66492L18.7826 6.64863C18.7563 6.62754 18.7292 6.60967 18.7013 6.59513Z" fill="url(#paint7_linear_884_415)"/>
<path d="M18.1396 6.57429C18.1284 6.58424 18.1176 6.59607 18.1074 6.60961C18.0608 6.67421 18.0102 6.72565 17.9631 6.7865C17.9381 6.8188 17.9113 6.84362 17.8869 6.87808L17.8553 6.92982C17.8372 6.95752 17.8177 6.98137 17.7971 7.00084C17.7738 7.02491 17.752 7.05431 17.7322 7.08828L17.6898 7.1483C17.6681 7.17806 17.6446 7.20455 17.6241 7.23647C17.6014 7.27564 17.5775 7.31243 17.5527 7.34665C17.5427 7.35778 17.5331 7.37026 17.524 7.38397C17.5116 7.404 17.5021 7.4302 17.491 7.45019C17.4827 7.46372 17.4738 7.47614 17.4646 7.48735C17.4483 7.50894 17.4327 7.53267 17.4179 7.55834C17.4081 7.57456 17.3995 7.59327 17.3924 7.61378C17.389 7.62333 17.3865 7.63383 17.3852 7.64467C17.3839 7.65551 17.3838 7.66647 17.3848 7.67689C17.3863 7.68672 17.389 7.69558 17.3927 7.70291C17.3963 7.71024 17.4008 7.71589 17.4059 7.7195C17.4108 7.72288 17.4162 7.724 17.4217 7.7228C17.4272 7.72159 17.4327 7.71809 17.4376 7.71255C17.4443 7.70483 17.4507 7.69607 17.4566 7.68639C17.4654 7.67466 17.4753 7.66669 17.4843 7.65445C17.4985 7.63421 17.5116 7.61118 17.5233 7.58584C17.5374 7.56239 17.5524 7.54104 17.5682 7.52205C17.5857 7.49709 17.6022 7.46596 17.6192 7.4401C17.6309 7.4214 17.6426 7.40271 17.6549 7.38621C17.6657 7.37332 17.6768 7.36147 17.6882 7.35073C17.7119 7.32194 17.7344 7.28944 17.7555 7.25364C17.789 7.20056 17.8255 7.151 17.8611 7.10349C17.8708 7.0891 17.8812 7.0764 17.892 7.06558C17.9037 7.05608 17.9151 7.04549 17.9263 7.03385C17.9423 7.0133 17.9576 6.99092 17.9722 6.96687C17.9891 6.94325 18.0072 6.9207 18.0253 6.89881L18.0707 6.84752C18.0847 6.83481 18.0978 6.81847 18.1096 6.79904C18.1139 6.79149 18.1186 6.78467 18.1235 6.77868C18.1357 6.76292 18.1483 6.74834 18.1612 6.73502C18.1824 6.71283 18.2017 6.68402 18.2182 6.64999C18.2253 6.63675 18.2302 6.62006 18.2322 6.60241C18.2341 6.58475 18.2331 6.56707 18.2291 6.55202C18.2256 6.54227 18.2207 6.5348 18.2148 6.53039C18.209 6.52599 18.2024 6.52481 18.1957 6.52698C18.1918 6.52865 18.1879 6.53079 18.1841 6.53339C18.1689 6.54528 18.1541 6.55895 18.1396 6.57429Z" fill="url(#paint8_linear_884_415)"/>
<path d="M17.491 5.17974C17.4866 5.16693 17.4811 5.15569 17.4745 5.14642C17.4479 5.09788 17.4242 5.0442 17.4038 4.98614C17.3915 4.95762 17.3852 4.92006 17.3726 4.89094C17.367 4.87694 17.3598 4.86719 17.3545 4.8531C17.3446 4.83082 17.3376 4.80447 17.3339 4.7757C17.3285 4.74396 17.3203 4.71446 17.3098 4.6882C17.3041 4.66929 17.299 4.6497 17.2945 4.6295C17.2872 4.59926 17.2837 4.56398 17.2755 4.53564C17.2652 4.50294 17.2572 4.46773 17.2517 4.4307C17.2507 4.41584 17.2489 4.40138 17.2462 4.38756C17.242 4.36962 17.2341 4.3564 17.23 4.33659C17.2274 4.3235 17.2257 4.30964 17.225 4.29536C17.2231 4.26988 17.2198 4.24511 17.2151 4.22143C17.2127 4.20564 17.2084 4.19136 17.2026 4.17957C17.1993 4.17355 17.1952 4.16903 17.1907 4.1663C17.1861 4.16357 17.1812 4.1627 17.1762 4.16374C17.1652 4.16534 17.1543 4.17428 17.1457 4.18886C17.1372 4.20345 17.1315 4.22267 17.1297 4.24289C17.1298 4.25428 17.1306 4.26547 17.1321 4.27625C17.1322 4.29206 17.1328 4.30773 17.134 4.32316C17.1364 4.34692 17.1412 4.3692 17.1481 4.38896C17.1529 4.41282 17.1564 4.43775 17.1586 4.46339C17.164 4.4923 17.1702 4.51994 17.1772 4.54632C17.182 4.56469 17.1862 4.58367 17.1898 4.60317C17.1926 4.62091 17.193 4.63763 17.1951 4.65678C17.2005 4.694 17.2091 4.72879 17.2207 4.75991L17.2672 4.91332C17.2721 4.92724 17.2761 4.94206 17.2794 4.95759C17.282 4.9758 17.2851 4.99361 17.2888 5.01094C17.2962 5.03229 17.3049 5.05203 17.3146 5.06992L17.3422 5.13703L17.3642 5.19568C17.369 5.21471 17.3764 5.23085 17.3857 5.24277C17.3897 5.24729 17.3933 5.25309 17.3961 5.25993L17.4173 5.30251C17.4279 5.32764 17.4428 5.34541 17.4601 5.35352C17.4682 5.35676 17.477 5.35472 17.4851 5.34773C17.4932 5.34074 17.5001 5.3292 17.5046 5.315C17.5127 5.29399 17.5163 5.26893 17.5146 5.24524C17.5136 5.2401 17.5122 5.23523 17.5106 5.23071C17.5046 5.21298 17.4981 5.19597 17.491 5.17974Z" fill="url(#paint9_linear_884_415)"/>
<path d="M16.6395 3.96276C16.6508 3.97346 16.6627 3.98224 16.6751 3.98901C16.7322 4.02766 16.7861 4.07813 16.8361 4.13957C16.8641 4.16768 16.8859 4.2121 16.9132 4.24321L16.9503 4.28771C16.9707 4.31338 16.9886 4.34508 17.0034 4.38176C17.0215 4.42211 17.0414 4.45944 17.0629 4.4934C17.0762 4.51759 17.0881 4.54477 17.1001 4.57056C17.1187 4.61072 17.1328 4.65978 17.1514 4.69994C17.1732 4.74633 17.1923 4.79699 17.2085 4.85126C17.2137 4.87257 17.2194 4.89318 17.2259 4.91298C17.2355 4.93989 17.2469 4.96201 17.2562 4.98994C17.2622 5.00921 17.2671 5.02974 17.2709 5.05126C17.2782 5.09082 17.2869 5.12925 17.2967 5.16636C17.3024 5.1904 17.3098 5.21255 17.3188 5.23225C17.3222 5.24118 17.3268 5.24831 17.3322 5.25314C17.3375 5.25797 17.3435 5.26037 17.3498 5.26019C17.3717 5.25397 17.3887 5.20512 17.3835 5.14079C17.3813 5.12332 17.3785 5.10632 17.375 5.08991L17.3634 5.01881C17.356 4.98181 17.346 4.94736 17.3335 4.91631C17.3228 4.88091 17.3131 4.84421 17.3046 4.8062C17.2914 4.76381 17.2767 4.72428 17.262 4.68565C17.2516 4.65928 17.2411 4.63291 17.2318 4.60592L17.21 4.53175C17.1926 4.48037 17.1717 4.43386 17.1477 4.39321C17.1126 4.32734 17.0765 4.26043 17.0391 4.19947C17.029 4.18048 17.0174 4.1661 17.0079 4.14666C16.9984 4.12723 16.9893 4.10516 16.9779 4.08616C16.9603 4.06221 16.9417 4.04074 16.9222 4.0219L16.8593 3.9505C16.8423 3.92993 16.8243 3.91316 16.807 3.89362C16.7927 3.8738 16.7763 3.85929 16.7585 3.85075C16.7511 3.84758 16.744 3.84297 16.7373 3.83697L16.6908 3.8027C16.6663 3.78141 16.639 3.77118 16.6107 3.77273C16.5884 3.77451 16.5651 3.79893 16.5638 3.83525C16.563 3.84996 16.5641 3.86437 16.5669 3.87736C16.5697 3.89034 16.5742 3.90154 16.58 3.91007C16.5835 3.91453 16.5872 3.91857 16.591 3.92218L16.6395 3.96276Z" fill="url(#paint10_linear_884_415)"/>
<path d="M17.1509 4.41128C17.2374 4.03756 17.2998 3.65502 17.3367 3.27063C17.4049 2.87334 17.3967 2.46848 17.3133 2.11498C17.2727 1.96602 17.2132 1.83585 17.1717 1.68879C17.1302 1.54174 17.0481 1.41468 17.0795 1.23981C16.9172 2.31794 16.9194 3.40755 17.0857 4.40664" fill="url(#paint11_linear_884_415)"/>
<path d="M20.4244 9.28243C20.4256 9.25013 20.4255 9.21793 20.4241 9.18605C20.4153 9.04166 20.4152 8.89052 20.4029 8.74573C20.3978 8.66881 20.3957 8.59148 20.3871 8.51559L20.3707 8.41516C20.3625 8.35789 20.3566 8.29936 20.3532 8.23998C20.3482 8.17315 20.3391 8.10805 20.3259 8.04576L20.3035 7.9215C20.2938 7.85624 20.2826 7.79141 20.2693 7.72953C20.2521 7.65938 20.2341 7.59372 20.2192 7.52104C20.2144 7.49339 20.2088 7.46634 20.2023 7.43999C20.1925 7.40481 20.1777 7.3753 20.1673 7.34263C20.1604 7.31864 20.1543 7.29391 20.1491 7.26855C20.1379 7.22388 20.1251 7.18054 20.111 7.13874C20.102 7.1127 20.0911 7.08889 20.0786 7.06781C20.074 7.05875 20.0682 7.05186 20.0615 7.04768C20.0548 7.0435 20.0475 7.04214 20.0401 7.04373C20.016 7.05634 20.0017 7.11421 20.014 7.17756C20.0181 7.19524 20.023 7.21234 20.0284 7.22878C20.0351 7.25244 20.0383 7.27852 20.0441 7.30242C20.0547 7.33969 20.067 7.37536 20.0809 7.40915C20.0929 7.44812 20.1032 7.48876 20.1117 7.53075C20.1229 7.57936 20.1379 7.6262 20.1502 7.67453C20.1582 7.70811 20.1665 7.74164 20.1736 7.77573C20.1782 7.80547 20.1817 7.83579 20.1842 7.86655C20.1934 7.93313 20.2089 7.99626 20.221 8.05989C20.2406 8.16111 20.2566 8.2647 20.269 8.37015C20.2738 8.39976 20.2769 8.43027 20.2784 8.46133C20.2799 8.49329 20.28 8.52541 20.2828 8.55675C20.2866 8.60419 20.292 8.65098 20.2989 8.69692C20.3046 8.74974 20.3077 8.80258 20.3113 8.85765C20.3133 8.90189 20.3154 8.94636 20.3165 8.99087C20.316 9.03048 20.3176 9.06976 20.3212 9.10827C20.3228 9.12405 20.3236 9.14017 20.3235 9.15644C20.3255 9.19323 20.3263 9.23038 20.3259 9.26771C20.3257 9.32794 20.3294 9.38739 20.3372 9.44494C20.3442 9.48984 20.3628 9.53025 20.3821 9.51574C20.3903 9.50891 20.3976 9.49886 20.4033 9.48649C20.4089 9.47412 20.4129 9.45981 20.4147 9.44484L20.4189 9.4131C20.4223 9.36954 20.4241 9.32589 20.4244 9.28243Z" fill="url(#paint12_linear_884_415)"/>
<path d="M20.31 8.07043C20.3117 8.05353 20.312 8.03653 20.311 8.01986C20.3061 7.94317 20.3115 7.86337 20.3103 7.78495C20.3099 7.74485 20.3154 7.70337 20.3135 7.6637C20.3126 7.64467 20.3093 7.62866 20.3087 7.60789C20.3065 7.57668 20.3075 7.54461 20.3116 7.51305C20.3153 7.47635 20.3154 7.43938 20.3118 7.40366C20.3105 7.37981 20.3102 7.35568 20.311 7.33146C20.3116 7.29512 20.3146 7.25808 20.3134 7.22219C20.3102 7.1821 20.3092 7.14132 20.3104 7.10031C20.3121 7.08446 20.3128 7.06851 20.3126 7.05268C20.3116 7.03133 20.3054 7.01164 20.304 6.99041C20.3035 6.97558 20.3039 6.96058 20.3052 6.94564C20.3068 6.9186 20.3067 6.89159 20.305 6.86505C20.3042 6.84766 20.3013 6.83102 20.2964 6.81617C20.2938 6.80844 20.2901 6.8019 20.2856 6.79701C20.2812 6.79212 20.2761 6.78897 20.2707 6.78779C20.2593 6.78477 20.2472 6.78888 20.2367 6.79937C20.2263 6.80986 20.2181 6.82604 20.2136 6.84497C20.2124 6.85536 20.2118 6.86585 20.2119 6.87625C20.2114 6.89261 20.2077 6.90656 20.2066 6.92168C20.2058 6.94581 20.2074 6.96967 20.2111 6.99237C20.2125 7.01749 20.2122 7.04305 20.2102 7.06854C20.2101 7.0982 20.2131 7.1284 20.2145 7.1581C20.2155 7.17882 20.2157 7.19971 20.2153 7.22067C20.2141 7.23796 20.2125 7.25521 20.2103 7.27236C20.2078 7.31068 20.2082 7.34896 20.2116 7.38627C20.2144 7.44544 20.2149 7.50642 20.215 7.56612C20.2155 7.58294 20.215 7.59996 20.2133 7.61689C20.2105 7.63459 20.2082 7.65239 20.2065 7.67028C20.2064 7.69666 20.2076 7.72282 20.2102 7.74847C20.2116 7.7777 20.2114 7.80786 20.2111 7.83756C20.2108 7.86726 20.2099 7.88678 20.2091 7.91052C20.2061 7.93203 20.2058 7.954 20.2081 7.97498C20.2094 7.98375 20.2098 7.9929 20.2094 8.00213C20.2108 8.02349 20.2113 8.04508 20.2111 8.06678C20.2099 8.10027 20.2137 8.13302 20.2222 8.16199C20.2263 8.17534 20.2329 8.18579 20.2412 8.19183C20.2494 8.19788 20.2587 8.19922 20.2679 8.19566C20.2746 8.19348 20.2811 8.1888 20.2868 8.18197C20.2925 8.17513 20.2973 8.16631 20.3009 8.15618C20.3023 8.15067 20.3034 8.14502 20.3042 8.13929C20.3071 8.11647 20.3091 8.09345 20.31 8.07043Z" fill="url(#paint13_linear_884_415)"/>
<path d="M20.0756 7.1877C19.5651 6.44522 19.1455 5.52039 18.8366 4.45693C18.9788 4.55218 19.1252 4.63121 19.2749 4.69362C19.535 4.87054 19.7385 5.22129 19.8494 5.68361C19.9649 6.15815 20.0468 6.66461 20.0934 7.19235" fill="url(#paint14_linear_884_415)"/>
<path d="M21.834 15.6379C21.8318 15.5875 21.8297 15.5371 21.8248 15.4839C21.8035 15.25 21.7754 15.0197 21.7405 14.7938C21.7225 14.6764 21.7044 14.5594 21.6816 14.4447L21.6429 14.2949C21.623 14.204 21.6018 14.1308 21.5848 14.0388C21.5634 13.941 21.5375 13.8471 21.5074 13.758L21.4501 13.58C21.4218 13.4888 21.3913 13.3987 21.3601 13.3122L21.2433 13.0319C21.2286 12.9952 21.2154 12.9577 21.1994 12.9233C21.1775 12.8767 21.152 12.8415 21.1295 12.7964C21.1136 12.7664 21.1005 12.731 21.0847 12.7C21.0574 12.6403 21.0287 12.5844 20.9989 12.5323C20.9803 12.4998 20.96 12.4703 20.9384 12.4441C20.9241 12.4222 20.9051 12.4119 20.8853 12.4153C20.8608 12.4329 20.8629 12.5078 20.8982 12.5895C20.9081 12.612 20.9203 12.6321 20.9316 12.6534C20.9471 12.6836 20.9591 12.718 20.9737 12.7494C20.9967 12.8005 21.0253 12.8412 21.0498 12.8882C21.0782 12.9405 21.0989 12.9946 21.1235 13.0496L21.2104 13.2434L21.2671 13.3844C21.2815 13.4261 21.2948 13.4691 21.3069 13.5134C21.3364 13.6066 21.3686 13.6958 21.4 13.7872C21.4485 13.9324 21.4918 14.0839 21.5294 14.2406C21.5412 14.283 21.5511 14.3274 21.559 14.3732L21.5836 14.518C21.5959 14.5873 21.6138 14.6592 21.6278 14.7282C21.6443 14.8078 21.6556 14.8922 21.6686 14.9747C21.6793 15.0425 21.6858 15.1117 21.6944 15.1828C21.7018 15.241 21.7054 15.3155 21.7145 15.3687C21.7184 15.3945 21.7216 15.4207 21.7241 15.4473C21.7305 15.5046 21.7351 15.5628 21.7378 15.6217C21.7439 15.718 21.7525 15.8199 21.7629 15.9078C21.7722 15.9821 21.7928 16.045 21.8104 16.0208C21.8191 16.0045 21.826 15.9855 21.8306 15.9649C21.8352 15.9443 21.8374 15.9228 21.8371 15.9016L21.8384 15.8512C21.8395 15.7795 21.838 15.7082 21.834 15.6379Z" fill="url(#paint15_linear_884_415)"/>
<path d="M21.0114 12.4717C20.8359 12.522 20.6607 12.5407 20.4882 12.5274C20.333 12.497 20.1944 12.3733 20.0925 12.1742C19.9985 11.9207 19.9205 11.6457 19.86 11.3535C19.7742 11.0463 19.6457 10.794 19.4857 10.6183C19.8183 10.6923 20.1364 10.8567 20.4303 11.1064C20.7215 11.3835 20.9289 11.871 21.0114 12.4717Z" fill="url(#paint16_linear_884_415)"/>
<path d="M12.5289 7.64783C12.4812 7.67918 12.4364 7.72771 12.3973 7.79013C12.3583 7.85256 12.326 7.92743 12.3025 8.00971C12.2531 8.18052 12.2167 8.35959 12.1942 8.5415C12.0707 9.38241 11.982 10.2296 11.929 11.0756C12.1105 10.8106 12.28 10.5185 12.435 10.2032C12.5862 9.91445 12.6924 9.56344 12.7401 9.19486C12.7793 8.62651 12.7078 8.08087 12.5379 7.6517" fill="url(#paint17_linear_884_415)"/>
<path d="M17.1636 6.67969C16.8049 6.65453 16.4336 6.87405 16.1207 7.29642C15.775 7.72582 15.4992 8.32826 15.3344 9.01366C15.6104 8.78533 15.8953 8.61245 16.1835 8.49847C16.401 8.38689 16.6071 8.17763 16.7816 7.89126C16.9832 7.5446 17.1327 7.11223 17.2115 6.64768" fill="url(#paint18_linear_884_415)"/>
<path d="M16.6789 3.67408C16.518 3.12482 16.2472 2.72755 15.9141 2.55194C15.5925 2.39131 15.2551 2.30901 14.9097 2.30694C15.3277 3.24987 16.0353 3.83935 16.6583 3.69186" fill="url(#paint19_linear_884_415)"/>
<path d="M20.1475 6.99247C20.3161 6.72979 20.4569 6.41599 20.5609 6.07082C20.665 5.72565 20.7301 5.35659 20.7522 4.98689C20.7906 4.36595 20.6868 3.82917 20.7656 3.2113C20.2705 4.35312 20.0267 5.73015 20.0878 7.03958" fill="url(#paint20_linear_884_415)"/>
<path d="M20.7229 16.0601C20.706 14.8133 20.2848 13.8536 19.6804 13.688C19.5454 13.6892 19.4129 13.6636 19.2851 13.6117C19.4695 14.2366 19.7213 14.7746 20.0278 15.1983C20.276 15.489 20.5853 15.6278 20.7684 16.0679" fill="url(#paint21_linear_884_415)"/>
<path d="M21.422 22.2133C21.4238 22.1275 21.4248 22.0422 21.4236 21.9502C21.4151 21.548 21.4137 21.1385 21.3933 20.7368C21.3836 20.5255 21.3739 20.3146 21.3608 20.1034L21.3338 19.816C21.3206 19.6459 21.3055 19.5014 21.2957 19.3349C21.282 19.1509 21.2631 18.9692 21.239 18.7896L21.1937 18.4319C21.1721 18.2484 21.1467 18.0677 21.121 17.8881L21.0176 17.2816C21.0051 17.2047 20.9934 17.1269 20.979 17.0511C20.9589 16.9474 20.9326 16.8531 20.9114 16.7502L20.8697 16.5352C20.8433 16.4067 20.8169 16.2774 20.7868 16.1519C20.7666 16.0711 20.7456 15.9897 20.7235 15.9221C20.7103 15.8698 20.6896 15.8242 20.663 15.7888C20.6314 15.7695 20.6262 15.8783 20.6601 16.0579C20.6695 16.1077 20.6824 16.1579 20.6935 16.2078C20.709 16.2763 20.7204 16.349 20.7339 16.4198C20.7559 16.5343 20.7851 16.6419 20.8099 16.7536C20.8377 16.8795 20.8567 16.9926 20.8794 17.1171L20.9608 17.5515L21.0105 17.8529C21.0251 17.9437 21.0312 18.0236 21.0429 18.1135L21.1183 18.6816C21.1576 18.9759 21.1896 19.2819 21.2164 19.5839C21.2249 19.6692 21.2318 19.7557 21.2358 19.8406L21.248 20.1079C21.2539 20.2378 21.2677 20.3765 21.2766 20.5078C21.2874 20.6574 21.2921 20.8107 21.2982 20.9625C21.3039 21.0873 21.3048 21.2149 21.3079 21.3375C21.3109 21.4427 21.3087 21.5732 21.3142 21.6709C21.3164 21.7131 21.317 21.7646 21.318 21.8101C21.3208 21.9139 21.3203 22.0178 21.3189 22.1221C21.3181 22.2912 21.3199 22.4723 21.3251 22.6289C21.331 22.7583 21.3479 22.8771 21.3688 22.8414C21.3924 22.7852 21.4054 22.7197 21.4062 22.6534L21.4119 22.5691C21.4188 22.4481 21.4201 22.3338 21.422 22.2133Z" fill="url(#paint22_linear_884_415)"/>
<path d="M11.492 8.45958C11.3509 8.45169 11.2058 8.50555 11.0682 8.61689C10.9306 8.72823 10.8043 8.89397 10.6994 9.10092C10.4779 9.53767 10.312 10.0549 10.2171 10.6046C10.1199 11.1633 10.0466 11.7289 9.99776 12.2958C10.1627 11.7354 10.512 11.3426 10.7745 10.9529C10.9727 10.6184 11.1368 10.2212 11.2562 9.78648C11.3757 9.35176 11.4479 8.8891 11.4683 8.42793" fill="url(#paint23_linear_884_415)"/>
<path d="M15.7452 4.81914C15.505 5.09406 15.254 5.3286 14.9959 5.51941C14.7734 5.74844 14.5782 6.07034 14.4288 6.45463C14.2749 6.84743 14.1368 7.25776 14.0158 7.6817C14.3486 7.17452 14.8645 7.28866 15.2109 6.82341C15.3657 6.59861 15.488 6.30509 15.5631 5.97839C15.6455 5.61423 15.7119 5.24246 15.7617 4.86701" fill="url(#paint24_linear_884_415)"/>
<path d="M21.5877 16.5924C21.8987 15.5493 22.1308 14.4624 22.278 13.3599C22.4256 12.248 22.3093 11.1484 21.9542 10.2986C21.6366 10.8145 21.5232 11.5604 21.4873 12.2816C21.4709 12.9988 21.504 13.7046 21.586 14.3854C21.6679 15.0674 21.6834 15.782 21.6319 16.5043" fill="url(#paint25_linear_884_415)"/>
<path d="M21.1302 18.6086C20.7426 18.8409 20.3602 18.5476 20.0711 18.1069C19.782 17.6662 19.5553 17.0837 19.269 16.6375C19.4009 16.7559 19.5583 16.7778 19.7139 16.6994C19.8601 16.6387 20.0071 16.6191 20.1498 16.6413C20.3825 16.778 20.567 17.0763 20.6686 17.4799C20.7715 17.8851 20.9211 18.2353 21.1086 18.5095" fill="url(#paint26_linear_884_415)"/>
<path d="M21.1498 19.9605C21.1752 19.2155 21.5621 18.4193 21.638 17.6728C21.7219 16.8456 21.487 16.1072 21.2135 15.5204C21.0981 16.3 21.244 17.1153 21.2721 17.8839C21.2793 18.53 21.2402 19.1862 21.1556 19.8391" fill="url(#paint27_linear_884_415)"/>
<path d="M13.3578 4.26068C13.3188 4.14862 13.2649 4.05622 13.1998 3.98978C13.1347 3.92335 13.0599 3.88444 12.9805 3.87573C12.8053 3.84314 12.6241 3.85904 12.4436 3.92288C12.0661 4.03056 11.6896 4.1834 11.3168 4.38027C11.5347 4.60345 11.7854 4.73361 12.0515 4.76171C12.3176 4.78981 12.5926 4.71516 12.8575 4.54296C13.019 4.40878 13.1876 4.31392 13.3579 4.26142" fill="url(#paint28_linear_884_415)"/>
<path d="M17.4985 7.64688C17.0587 8.63594 16.7042 9.46566 16.6472 10.9348C16.7814 10.6185 16.933 10.3266 17.099 10.065C17.2664 9.86987 17.4209 9.63461 17.5575 9.36672C17.6996 9.08118 17.784 8.72152 17.7933 8.3622C17.7985 8.18789 17.7726 8.02369 17.7194 7.89451C17.6662 7.76533 17.5886 7.67823 17.4985 7.64644" fill="url(#paint29_linear_884_415)"/>
<path d="M21.1131 23.5859C21.3718 22.9253 21.7956 22.6337 22.1012 22.0567C22.4826 21.3367 22.6288 20.2661 22.6553 19.2878C22.4711 19.9135 22.1019 20.4096 21.9229 21.0409C21.808 21.4469 21.7698 21.9203 21.6258 22.2928C21.5376 22.493 21.4397 22.6789 21.3336 22.8475C21.2258 23.023 21.1475 23.2511 21.1107 23.4964" fill="url(#paint30_linear_884_415)"/>
</g>
</g>
<defs>
<linearGradient id="paint0_linear_884_415" x1="15.8232" y1="21.1138" x2="6.77914" y2="6.6361" gradientUnits="userSpaceOnUse">
<stop stop-color="#BEC426"/>
<stop offset="1" stop-color="#0D412B"/>
</linearGradient>
<linearGradient id="paint1_linear_884_415" x1="11.9379" y1="6.86602" x2="11.864" y2="6.67834" gradientUnits="userSpaceOnUse">
<stop stop-color="#BEC426"/>
<stop offset="1" stop-color="#0D412B"/>
</linearGradient>
<linearGradient id="paint2_linear_884_415" x1="12.4384" y1="7.47612" x2="11.7889" y2="6.79713" gradientUnits="userSpaceOnUse">
<stop stop-color="#BEC426"/>
<stop offset="1" stop-color="#0D412B"/>
</linearGradient>
<linearGradient id="paint3_linear_884_415" x1="11.0429" y1="7.50772" x2="10.7835" y2="6.91203" gradientUnits="userSpaceOnUse">
<stop stop-color="#BEC426"/>
<stop offset="1" stop-color="#0D412B"/>
</linearGradient>
<linearGradient id="paint4_linear_884_415" x1="13.5397" y1="4.62964" x2="13.3348" y2="4.17002" gradientUnits="userSpaceOnUse">
<stop stop-color="#BEC426"/>
<stop offset="1" stop-color="#0D412B"/>
</linearGradient>
<linearGradient id="paint5_linear_884_415" x1="13.4569" y1="3.95843" x2="12.3042" y2="2.30955" gradientUnits="userSpaceOnUse">
<stop stop-color="#BEC426"/>
<stop offset="1" stop-color="#0D412B"/>
</linearGradient>
<linearGradient id="paint6_linear_884_415" x1="15.8353" y1="4.85839" x2="15.6948" y2="4.53149" gradientUnits="userSpaceOnUse">
<stop stop-color="#BEC426"/>
<stop offset="1" stop-color="#0D412B"/>
</linearGradient>
<linearGradient id="paint7_linear_884_415" x1="17.7627" y1="6.94943" x2="17.5502" y2="6.395" gradientUnits="userSpaceOnUse">
<stop stop-color="#BEC426"/>
<stop offset="1" stop-color="#0D412B"/>
</linearGradient>
<linearGradient id="paint8_linear_884_415" x1="17.7258" y1="7.37557" x2="17.4029" y2="6.71703" gradientUnits="userSpaceOnUse">
<stop stop-color="#BEC426"/>
<stop offset="1" stop-color="#0D412B"/>
</linearGradient>
<linearGradient id="paint9_linear_884_415" x1="17.2999" y1="5.07925" x2="16.726" y2="4.37567" gradientUnits="userSpaceOnUse">
<stop stop-color="#BEC426"/>
<stop offset="1" stop-color="#0D412B"/>
</linearGradient>
<linearGradient id="paint10_linear_884_415" x1="16.9119" y1="4.96466" x2="16.1903" y2="3.85245" gradientUnits="userSpaceOnUse">
<stop stop-color="#BEC426"/>
<stop offset="1" stop-color="#0D412B"/>
</linearGradient>
<linearGradient id="paint11_linear_884_415" x1="17.155" y1="3.58213" x2="15.723" y2="2.45616" gradientUnits="userSpaceOnUse">
<stop stop-color="#BEC426"/>
<stop offset="1" stop-color="#0D412B"/>
</linearGradient>
<linearGradient id="paint12_linear_884_415" x1="20.2184" y1="8.89805" x2="19.0657" y2="8.02368" gradientUnits="userSpaceOnUse">
<stop stop-color="#BEC426"/>
<stop offset="1" stop-color="#0D412B"/>
</linearGradient>
<linearGradient id="paint13_linear_884_415" x1="20.2592" y1="7.83267" x2="19.6432" y2="7.41445" gradientUnits="userSpaceOnUse">
<stop stop-color="#BEC426"/>
<stop offset="1" stop-color="#0D412B"/>
</linearGradient>
<linearGradient id="paint14_linear_884_415" x1="19.3753" y1="6.63556" x2="17.9927" y2="4.74983" gradientUnits="userSpaceOnUse">
<stop stop-color="#BEC426"/>
<stop offset="1" stop-color="#0D412B"/>
</linearGradient>
<linearGradient id="paint15_linear_884_415" x1="21.3119" y1="15.1751" x2="19.535" y2="13.2497" gradientUnits="userSpaceOnUse">
<stop stop-color="#BEC426"/>
<stop offset="1" stop-color="#0D412B"/>
</linearGradient>
<linearGradient id="paint16_linear_884_415" x1="20.1207" y1="12.1857" x2="19.1529" y2="10.5712" gradientUnits="userSpaceOnUse">
<stop stop-color="#BEC426"/>
<stop offset="1" stop-color="#0D412B"/>
</linearGradient>
<linearGradient id="paint17_linear_884_415" x1="12.2523" y1="10.1237" x2="10.8351" y2="8.40069" gradientUnits="userSpaceOnUse">
<stop stop-color="#E8BB41"/>
<stop offset="1" stop-color="#AC0FB9"/>
</linearGradient>
<linearGradient id="paint18_linear_884_415" x1="16.0852" y1="8.28017" x2="15.4789" y2="7.05277" gradientUnits="userSpaceOnUse">
<stop stop-color="#E8BB41"/>
<stop offset="1" stop-color="#AC0FB9"/>
</linearGradient>
<linearGradient id="paint19_linear_884_415" x1="15.6359" y1="3.55636" x2="14.8622" y2="2.12469" gradientUnits="userSpaceOnUse">
<stop stop-color="#E8BB41"/>
<stop offset="1" stop-color="#AC0FB9"/>
</linearGradient>
<linearGradient id="paint20_linear_884_415" x1="20.3741" y1="6.00669" x2="18.7592" y2="4.24785" gradientUnits="userSpaceOnUse">
<stop stop-color="#E8BB41"/>
<stop offset="1" stop-color="#AC0FB9"/>
</linearGradient>
<linearGradient id="paint21_linear_884_415" x1="19.9098" y1="15.618" x2="18.6544" y2="13.7231" gradientUnits="userSpaceOnUse">
<stop stop-color="#E8BB41"/>
<stop offset="1" stop-color="#AC0FB9"/>
</linearGradient>
<linearGradient id="paint22_linear_884_415" x1="21.1102" y1="21.0355" x2="18.4398" y2="19.8226" gradientUnits="userSpaceOnUse">
<stop stop-color="#BEC426"/>
<stop offset="1" stop-color="#0D412B"/>
</linearGradient>
<linearGradient id="paint23_linear_884_415" x1="10.6049" y1="11.2027" x2="9.25885" y2="9.11078" gradientUnits="userSpaceOnUse">
<stop stop-color="#BEC426"/>
<stop offset="1" stop-color="#0D412B"/>
</linearGradient>
<linearGradient id="paint24_linear_884_415" x1="14.7171" y1="6.84105" x2="13.9029" y2="5.32649" gradientUnits="userSpaceOnUse">
<stop stop-color="#BEC426"/>
<stop offset="1" stop-color="#0D412B"/>
</linearGradient>
<linearGradient id="paint25_linear_884_415" x1="21.8859" y1="14.8914" x2="19.1002" y2="12.5622" gradientUnits="userSpaceOnUse">
<stop stop-color="#BEC426"/>
<stop offset="1" stop-color="#0D412B"/>
</linearGradient>
<linearGradient id="paint26_linear_884_415" x1="20.0394" y1="18.3446" x2="18.985" y2="16.5296" gradientUnits="userSpaceOnUse">
<stop stop-color="#BEC426"/>
<stop offset="1" stop-color="#0D412B"/>
</linearGradient>
<linearGradient id="paint27_linear_884_415" x1="21.3442" y1="18.7492" x2="19.3606" y2="17.1712" gradientUnits="userSpaceOnUse">
<stop stop-color="#BEC426"/>
<stop offset="1" stop-color="#0D412B"/>
</linearGradient>
<linearGradient id="paint28_linear_884_415" x1="12.6695" y1="4.71521" x2="12.3481" y2="4.00442" gradientUnits="userSpaceOnUse">
<stop stop-color="#442F9B"/>
<stop offset="1" stop-color="#54B597"/>
</linearGradient>
<linearGradient id="paint29_linear_884_415" x1="17.4578" y1="10.8366" x2="15.9145" y2="9.13927" gradientUnits="userSpaceOnUse">
<stop stop-color="#442F9B"/>
<stop offset="1" stop-color="#54B597"/>
</linearGradient>
<linearGradient id="paint30_linear_884_415" x1="22.2197" y1="23.4252" x2="20.3057" y2="21.2133" gradientUnits="userSpaceOnUse">
<stop stop-color="#442F9B"/>
<stop offset="1" stop-color="#54B597"/>
</linearGradient>
<clipPath id="clip0_884_415">
<rect width="32" height="32" rx="16" fill="white"/>
</clipPath>
</defs>
</svg>
