<svg id="svg8" height="512" viewBox="0 0 29.898438 29.898438" width="512" xmlns="http://www.w3.org/2000/svg" xmlns:xlink="http://www.w3.org/1999/xlink" xmlns:svg="http://www.w3.org/2000/svg"><linearGradient id="linearGradient149707" gradientUnits="userSpaceOnUse" x1="30" x2="2" y1="30" y2="2"><stop id="stop139879" offset="0" stop-color="#f0f"/><stop id="stop139881" offset="1" stop-color="#000080"/></linearGradient><g id="layer2" transform="translate(158.949 -161.051)"><g id="g6774" fill="url(#linearGradient149707)" stroke-linecap="round" stroke-linejoin="round" transform="matrix(0 -1 -1 0 -128 192)"><path id="circle6768" d="m16 1.0507812c-8.244804.0000002-14.9492186 6.7044148-14.9492188 14.9492188.0000001 8.244804 6.7044148 14.949219 14.9492188 14.949219s14.949219-6.704415 14.949219-14.949219-6.704415-14.9492187-14.949219-14.9492188zm0 2.0000001c7.163925 0 12.949219 5.7852938 12.949219 12.9492187 0 7.163925-5.785294 12.949219-12.949219 12.949219-7.1639249 0-12.9492187-5.785294-12.9492187-12.949219.0000001-7.1639248 5.7852939-12.9492186 12.9492187-12.9492187z"/><path id="path6770" d="m22.988281 18.15625a1 1 0 0 1 -.28125.550781l-6 6a1.0001 1.0001 0 0 1 -1.414062 0l-6.0000002-6a1 1 0 0 1 0-1.414062 1 1 0 0 1 .7070312-.292969 1 1 0 0 1 .707031.292969l4.292969 4.292969v-13.585938a1 1 0 0 1 1-1 1 1 0 0 1 1 1v13.585938l4.292969-4.292969a1 1 0 0 1 1.414062 0 1 1 0 0 1 .28125.863281z"/></g></g></svg>