<svg xmlns="http://www.w3.org/2000/svg" xmlns:xlink="http://www.w3.org/1999/xlink" width="281" height="136" viewBox="0 0 281 136">
  <defs>
    <clipPath id="clip-path">
      <rect id="Rectangle_2" data-name="Rectangle 2" width="281" height="136" transform="translate(7590 -1127)" fill="#fff"/>
    </clipPath>
    <linearGradient id="linear-gradient" x1="0.741" y1="0.604" x2="-0.135" y2="0.71" gradientUnits="objectBoundingBox">
      <stop offset="0" stop-color="#bec426"/>
      <stop offset="1" stop-color="#0d412b"/>
    </linearGradient>
    <linearGradient id="linear-gradient-18" x1="0.741" y1="0.604" x2="-0.135" y2="0.71" gradientUnits="objectBoundingBox">
      <stop offset="0" stop-color="#e8bb41"/>
      <stop offset="1" stop-color="#ac0fb9"/>
    </linearGradient>
    <linearGradient id="linear-gradient-29" x1="1.074" y1="0.345" x2="0.088" y2="0.553" gradientUnits="objectBoundingBox">
      <stop offset="0" stop-color="#442f9b"/>
      <stop offset="1" stop-color="#54b597"/>
    </linearGradient>
  </defs>
  <g id="Mask_Group_1" data-name="Mask Group 1" transform="translate(-7590 1127)" clip-path="url(#clip-path)">
    <g id="Group_81" data-name="Group 81" transform="translate(7595.849 -1157.476)">
      <g id="Group_73" data-name="Group 73" transform="translate(0 78.895)">
        <g id="Group_23" data-name="Group 23" transform="translate(0 0)">
          <g id="Group_21" data-name="Group 21" transform="translate(0 0)">
            <path id="Path_70" data-name="Path 70" d="M-2584.946,876.371a18.75,18.75,0,0,0-2.312-.8.533.533,0,0,0-.3.062h0a2.536,2.536,0,0,0-.259.807l-.109.756h-2.383l-1.548-12.092h2.524l.2.582a17.174,17.174,0,0,0,2.486,4.93,8.229,8.229,0,0,0,2.673,2.3,6.969,6.969,0,0,0,3.235.758,4.332,4.332,0,0,0,3.117-1.245,4.441,4.441,0,0,0,1.259-3.406,5.03,5.03,0,0,0-1.314-3.475,27.2,27.2,0,0,0-4.12-3.2l-3.778-2.577a14.7,14.7,0,0,1-2.881-2.536l-.008-.009a8.743,8.743,0,0,1-2.084-5.652,9.643,9.643,0,0,1,2.461-6.727,8.366,8.366,0,0,1,6.471-2.7,11.246,11.246,0,0,1,3.9.866,18.452,18.452,0,0,0,2.186.771.789.789,0,0,0,.463-.093,2.279,2.279,0,0,0,.325-.849l.152-.687h2.291l1.139,12.092h-2.6l-.158-.678a10.328,10.328,0,0,0-3.138-5.98,7.012,7.012,0,0,0-4.236-1.678,3.877,3.877,0,0,0-2.648.975,3.161,3.161,0,0,0-1.036,2.542,4.054,4.054,0,0,0,.843,2.6h0a12.878,12.878,0,0,0,3.015,2.619l3.882,2.619a21.081,21.081,0,0,1,5.345,4.716V862a9.263,9.263,0,0,1,1.637,5.461,9.441,9.441,0,0,1-2.895,7.024,9.985,9.985,0,0,1-7.238,2.773,12.824,12.824,0,0,1-4.553-.888Zm-101.245.829-11.1-27.114a13.677,13.677,0,0,0-2.012-3.906,2.972,2.972,0,0,0-1.929-.713l-.765-.057v-2.565h13.389v2.682l-.81.012a7.369,7.369,0,0,0-2.022.192.616.616,0,0,0-.487.679,4.348,4.348,0,0,0,.322,1.327c.245.69.714,1.875,1.394,3.52h0l6.083,14.846,5.572-16.188c.264-.77.467-1.436.6-1.959a4.556,4.556,0,0,0,.184-1.1.994.994,0,0,0-.586-1.055,5.425,5.425,0,0,0-1.851-.265l-.8-.026v-2.667h10.673v2.508l-.7.108a3.086,3.086,0,0,0-1.656.626h0a8.536,8.536,0,0,0-1.764,3.341h0l-9.969,27.771Zm239.791-.567v-2.6l.754-.066c2.231-.2,2.709-.659,2.782-.75s.452-.692.452-3.289V852.4l-9.946,24.238h-1.66l-9.756-23.2v15.192c0,3.135.517,4.195.827,4.548.149.166.7.569,2.58.792l.733.088v2.579h-12.01v-2.584l.737-.083c2.087-.234,2.75-.744,2.954-1.029.178-.242.593-1.145.593-4.314V848.983c0-2.018-.351-2.6-.5-2.762-.125-.131-.7-.568-2.9-.684l-.781-.042v-2.65h10.077l9.674,23.093,9.247-23.093h10.153v2.633l-.764.059c-1.938.154-2.494.549-2.641.715-.113.123-.475.687-.475,2.733v21.51c0,2.1.35,2.619.457,2.738.152.154.716.547,2.672.735l.748.073v2.6Zm-48.74,0v-2.594l.747-.072a8.29,8.29,0,0,0,2.235-.384,1.115,1.115,0,0,0,.078-.515,5.378,5.378,0,0,0-.189-1.023,13.45,13.45,0,0,0-.562-1.764l-1.618-4.107h-10.458c-1.017,2.8-1.636,4.551-1.841,5.193a4.854,4.854,0,0,0-.289,1.368c0,.578.209.77.434.887a5.837,5.837,0,0,0,1.828.344l.751.069v2.6h-10.393V874.06l.727-.091a2.691,2.691,0,0,0,2-1.079,38.1,38.1,0,0,0,2.813-6.341l9.424-24.276h1.941l.216.538,10.995,27.413a10.767,10.767,0,0,0,1.554,3.081,3.169,3.169,0,0,0,1.774.662l.7.108v2.554Zm-8.32-14.217h7.69l-3.87-10.086Zm-35.936,14.217v-2.587l.74-.08c2.187-.237,2.651-.67,2.722-.754.043-.051.422-.576.422-3.286v-8.5h-11.746v9.065c0,2.094.363,2.631.475,2.745.158.162.733.558,2.672.727l.756.066v2.6h-13.907v-2.579l.733-.086c2.179-.259,2.654-.693,2.727-.77.042-.049.422-.562.422-3.265v-20.95c0-2.061-.366-2.619-.479-2.736-.152-.165-.714-.562-2.64-.712l-.762-.059v-2.631h13.906v2.633l-.762.059c-1.93.154-2.5.552-2.656.716-.114.12-.483.673-.483,2.731v8.522h11.746v-8.522c0-2.064-.362-2.619-.471-2.741-.148-.163-.7-.558-2.646-.707l-.762-.059v-2.633h13.906v2.633l-.762.059c-1.926.154-2.489.549-2.64.712-.113.122-.478.675-.478,2.736v21.51c0,2.094.354,2.619.464,2.733.155.154.726.552,2.672.74l.748.073v2.594Zm-79.2,0v-2.608l.762-.06a5.928,5.928,0,0,0,3.051-.7c.049-.041.478-.462.478-2.773V848.983c0-2.1-.4-2.644-.519-2.761-.176-.168-.817-.572-2.99-.687l-.781-.04v-2.65h14.7V845.5l-.781.04c-2.173.114-2.813.518-2.99.687-.121.117-.518.662-.518,2.761V870.5c0,2.3.422,2.73.478,2.773a5.936,5.936,0,0,0,3.051.7l.762.06v2.608Zm-19.027,0-.246-.348-10.259-14.508-1.248.06v8.655c0,2.177.388,2.664.467,2.739a4.919,4.919,0,0,0,2.771.735l.75.071v2.6h-13.906v-2.593l.744-.076c2.1-.214,2.545-.675,2.613-.77.1-.135.436-.77.436-3.275V848.983c0-2.029-.359-2.591-.469-2.714-.141-.165-.689-.567-2.571-.733l-.754-.068v-2.619h13.043a17.381,17.381,0,0,1,6.652,1.121,8.533,8.533,0,0,1,4,3.168,9.1,9.1,0,0,1,1.361,5.062,8.018,8.018,0,0,1-2.445,6.242,10.134,10.134,0,0,1-2.747,1.747,13.54,13.54,0,0,1-2.1.71l8.231,11.092a5.574,5.574,0,0,0,1.448,1.437,4.384,4.384,0,0,0,1.829.55l.74.08v2.586Zm-11.683-30a1.969,1.969,0,0,0-.072.63v10.992a17.969,17.969,0,0,0,5.684-.981,4.775,4.775,0,0,0,2.251-1.933,6.214,6.214,0,0,0,.747-3.183,6.367,6.367,0,0,0-.67-3.073,4.348,4.348,0,0,0-1.99-1.849h0a9.506,9.506,0,0,0-4.126-.747,6.717,6.717,0,0,0-1.823.145Z" transform="translate(2702 -830.604)" fill="#9a239f"/>
            <g id="Group_18" data-name="Group 18" transform="translate(37.925 63.666)">
              <path id="Path_67" data-name="Path 67" d="M-57.491-9.731a2.59,2.59,0,0,0,1.814-.7,4.966,4.966,0,0,0,.4-2.517V-23.96l-.312-.4a2.6,2.6,0,0,0-.851-.8,3.037,3.037,0,0,0-1.052-.177V-25.8h3.907L-44.8-13.783v-8.353a4.361,4.361,0,0,0-.563-2.682,2.629,2.629,0,0,0-1.626-.524V-25.8h5.355v.462a2.518,2.518,0,0,0-1.737.695,4.639,4.639,0,0,0-.435,2.513V-8.99h-.39L-54.269-22.681v9.73a4.4,4.4,0,0,0,.546,2.67,2.612,2.612,0,0,0,1.592.548v.451h-5.355Zm23.885-6.3a9.772,9.772,0,0,0-2.11,1.024,3.017,3.017,0,0,0-1.6,2.465,1.952,1.952,0,0,0,.668,1.635,1.528,1.528,0,0,0,.969.342,2.494,2.494,0,0,0,1.407-.451,1.337,1.337,0,0,0,.674-1.146Zm-5.7,4.329a3.533,3.533,0,0,1,1.615-2.95,23.352,23.352,0,0,1,4.079-1.987v-1.037a4.647,4.647,0,0,0-.222-1.732,1.543,1.543,0,0,0-1.57-.817,2.019,2.019,0,0,0-1.08.317,1.021,1.021,0,0,0-.512.9,3.608,3.608,0,0,0,.056.495,3.822,3.822,0,0,1,.056.445,1.051,1.051,0,0,1-.412.951.967.967,0,0,1-.563.154.9.9,0,0,1-.768-.359,1.3,1.3,0,0,1-.267-.8,2.592,2.592,0,0,1,.964-1.787,3.893,3.893,0,0,1,2.822-.934A2.952,2.952,0,0,1-32.181-19.3a5.753,5.753,0,0,1,.412,2.451v4.89a3.572,3.572,0,0,0,.089.975.589.589,0,0,0,.6.476.925.925,0,0,0,.422-.085,4.306,4.306,0,0,0,.58-.414v.635a3.777,3.777,0,0,1-.768.781,2.113,2.113,0,0,1-1.266.462,1.2,1.2,0,0,1-1.1-.536,2.568,2.568,0,0,1-.373-1.28,10.631,10.631,0,0,1-1.447,1.2,3.57,3.57,0,0,1-1.926.658,2.215,2.215,0,0,1-1.658-.738,2.61,2.61,0,0,1-.692-1.875Zm16.225-8.817v.878h-2.272l-.022,7.023a5.127,5.127,0,0,0,.141,1.4,1.044,1.044,0,0,0,1.046.841,1.184,1.184,0,0,0,.7-.208,3.791,3.791,0,0,0,.674-.658l.29.268-.245.365A3.7,3.7,0,0,1-24-9.4a2.6,2.6,0,0,1-1.246.354,1.759,1.759,0,0,1-1.781-1.28,5.77,5.77,0,0,1-.256-1.927v-7.395H-28.5a.335.335,0,0,1-.083-.072.164.164,0,0,1-.028-.1.311.311,0,0,1,.051-.189,3.457,3.457,0,0,1,.318-.308,10,10,0,0,0,1.108-1.128q.339-.433,1.6-2.286a.341.341,0,0,1,.173.025q.028.025.028.183v3Zm5.2-.049v7.8a3.469,3.469,0,0,0,.211,1.33,1.509,1.509,0,0,0,1.513.924,2.431,2.431,0,0,0,1.481-.548,4.523,4.523,0,0,0,.835-.841v-6.681a1.656,1.656,0,0,0-.333-1.232,2.358,2.358,0,0,0-1.336-.354v-.4h3.6v8.584a1.774,1.774,0,0,0,.273,1.14,1.458,1.458,0,0,0,1.152.274v.342q-.612.183-.9.274t-.969.336q-.29.109-1.266.524a.057.057,0,0,1-.046-.014.068.068,0,0,1-.023-.046.65.65,0,0,1-.011-.128V-11.25a7.9,7.9,0,0,1-1.38,1.464,3.225,3.225,0,0,1-2,.732,2.724,2.724,0,0,1-1.829-.756,3.147,3.147,0,0,1-.868-2.5V-18.64a1.715,1.715,0,0,0-.377-1.3,2.121,2.121,0,0,0-1.046-.293v-.342ZM-8.766-9.683a2.517,2.517,0,0,0,1.359-.4,1.745,1.745,0,0,0,.333-1.274v-5.5a5.128,5.128,0,0,0-.205-1.725.75.75,0,0,0-.751-.518,1.894,1.894,0,0,0-.3.031q-.184.031-.384.079v-.4l1.3-.5q.668-.256.924-.365.563-.231,1.146-.524a.085.085,0,0,1,.094.062,1.215,1.215,0,0,1,.017.256v2a9.1,9.1,0,0,1,1.376-1.695,2.026,2.026,0,0,1,1.376-.616,1.221,1.221,0,0,1,.924.371,1.293,1.293,0,0,1,.356.934,1.306,1.306,0,0,1-.273.841.842.842,0,0,1-.685.342,1.236,1.236,0,0,1-.852-.427,1.185,1.185,0,0,0-.674-.427q-.39,0-.958.689a2.215,2.215,0,0,0-.563,1.42v5.5a1.932,1.932,0,0,0,.446,1.457,2.085,2.085,0,0,0,1.481.384v.4H-8.758ZM5.088-20.714a3.76,3.76,0,0,1,2.75,1.189,4.588,4.588,0,0,1,1.18,3.372H1.949a6.95,6.95,0,0,0,1.169,4.121,3.157,3.157,0,0,0,2.505,1.293,2.965,2.965,0,0,0,1.969-.67,6.614,6.614,0,0,0,1.481-1.91l.39.146a7.024,7.024,0,0,1-1.709,2.865A4.068,4.068,0,0,1,4.686-8.99a3.65,3.65,0,0,1-3.235-1.732A7.08,7.08,0,0,1,.306-14.706a6.892,6.892,0,0,1,1.325-4.232,4.109,4.109,0,0,1,3.457-1.776Zm-.646.89a2.1,2.1,0,0,0-1.937,1.232,5.164,5.164,0,0,0-.512,1.658h4.7A5.454,5.454,0,0,0,6.27-18.75a1.888,1.888,0,0,0-1.827-1.078Z" transform="translate(120.24 25.804)" fill="#166f6e"/>
              <line id="Line_4" data-name="Line 4" x2="49.289" transform="translate(0 11.18)" fill="none" stroke="#9a239f" stroke-width="2"/>
              <line id="Line_5" data-name="Line 5" x2="49.289" transform="translate(150.407 11.18)" fill="none" stroke="#583981" stroke-width="2"/>
            </g>
            <g id="Ellipse_16" data-name="Ellipse 16" transform="translate(88.034)" fill="#9a239f" stroke="#9a239f" stroke-width="1" opacity="0.5">
              <ellipse cx="2.872" cy="3.146" rx="2.872" ry="3.146" stroke="none"/>
              <ellipse cx="2.872" cy="3.146" rx="2.372" ry="2.646" fill="none"/>
            </g>
          </g>
        </g>
      </g>
      <g id="Group_64" data-name="Group 64" transform="matrix(0.616, 0.788, -0.788, 0.616, 149.864, 0)">
        <g id="Group_39" data-name="Group 39" transform="translate(48.762 2.129) rotate(30)">
          <path id="Path_36" data-name="Path 36" d="M88.312,8.909a54.615,54.615,0,0,0-5.586-2.885A58.97,58.97,0,0,0,54.076.853,51.491,51.491,0,0,0,39.2,4.154c-1.09.453-2.164.87-3.18,1.395L34.482,6.3l-1.514.837a58.574,58.574,0,0,0-9.275,6.51,61.987,61.987,0,0,0-8.762,9.225,82.506,82.506,0,0,0-4.814,6.811A78.606,78.606,0,0,0,4.129,40.793,39.943,39.943,0,0,0,.762,54.614L.735,55.973l.052,1.362a25.711,25.711,0,0,0,.256,2.718A38.352,38.352,0,0,0,2.9,67.224c.6,1.63,1.248,3.256,2.009,4.836a75.631,75.631,0,0,0,4.653,8.334c1.1,1.738,2.271,3.462,3.345,4.972a39.04,39.04,0,0,0,2.4,3.128c.729.713-.38-1.174-2.832-4.888-.673-1.031-1.384-2.116-2.062-3.188-.942-1.5-1.8-2.957-2.644-4.488a67.108,67.108,0,0,1-3.652-7.487,36.354,36.354,0,0,1-2.279-8.4,30.093,30.093,0,0,1,.244-10.2,39.632,39.632,0,0,1,1.952-6.769A56.035,56.035,0,0,1,6.509,37.6a92.683,92.683,0,0,1,6.857-11.347A65.6,65.6,0,0,1,28.021,11.128,51.685,51.685,0,0,1,33.115,7.87c.925-.49,1.824-1.007,2.786-1.428l1.427-.668c.482-.215.984-.4,1.478-.6a49.557,49.557,0,0,1,9.2-2.778,53.755,53.755,0,0,1,10.959-.981,56.692,56.692,0,0,1,9.05.827,65.473,65.473,0,0,1,7.817,1.91c.974.31,2.162.714,3.171,1.1a59.9,59.9,0,0,1,6.807,3.089,68.716,68.716,0,0,1,10.074,6.55c2.42,1.882,4.479,3.717,4.028,3.071a22.735,22.735,0,0,0-3.1-3.068c-.493-.4-1-.857-1.533-1.255a61.032,61.032,0,0,0-6.966-4.729Z" transform="translate(0 0)" stroke="rgba(0,0,0,0)" stroke-width="1" fill="url(#linear-gradient)"/>
        </g>
        <g id="Group_40" data-name="Group 40" transform="translate(16.323 73.907) rotate(30)">
          <path id="Path_38" data-name="Path 38" d="M.424.347A.441.441,0,0,0,.387.514C.379.776.3,1.031.271,1.292c-.014.141-.073.265-.076.4,0,.065.02.128.018.193A.719.719,0,0,1,.152,2.2a.788.788,0,0,0-.037.36A2.026,2.026,0,0,1,.1,2.8a3.033,3.033,0,0,0-.041.363,1.857,1.857,0,0,1,.006.423.575.575,0,0,0-.018.151c0,.073.053.142.061.216A.551.551,0,0,1,.1,4.1a.915.915,0,0,0,0,.273.351.351,0,0,0,.067.171.323.323,0,0,0,.2.111A.44.44,0,0,0,.828,4.5a.345.345,0,0,0,0-.1.764.764,0,0,1,.04-.14.556.556,0,0,0-.04-.233A.716.716,0,0,1,.84,3.78c0-.1-.015-.2-.019-.3a1.19,1.19,0,0,1,0-.2.991.991,0,0,1,.065-.165A1.1,1.1,0,0,0,.9,2.739a3.816,3.816,0,0,1,.026-.589.486.486,0,0,1,.022-.163,1.241,1.241,0,0,0,.072-.163,1.071,1.071,0,0,0,0-.259,2.184,2.184,0,0,1,.044-.293l.051-.233C1.128.974,1.17.9,1.144.832a.2.2,0,0,1,0-.089A.987.987,0,0,1,1.179.55.5.5,0,0,0,1.155.222.407.407,0,0,0,.829.014.372.372,0,0,0,.552.081.313.313,0,0,0,.515.13,1.114,1.114,0,0,0,.424.347Z" transform="translate(0 0)" stroke="rgba(0,0,0,0)" stroke-width="1" fill="url(#linear-gradient)"/>
        </g>
        <g id="Group_41" data-name="Group 41" transform="translate(17.212 71.454) rotate(30)">
          <path id="Path_39" data-name="Path 39" d="M.463.71A.933.933,0,0,0,.682.769,9.9,9.9,0,0,1,1.691,1c.17.039.341.122.519.156.085.017.168.012.251.03a1.229,1.229,0,0,1,.4.134,1.588,1.588,0,0,0,.463.134q.156.035.309.084c.154.048.3.119.454.156a2.95,2.95,0,0,1,.529.147,1.1,1.1,0,0,0,.192.08c.094.024.194.012.288.033a.882.882,0,0,1,.184.071,1.9,1.9,0,0,0,.338.117.607.607,0,0,0,.232.02.3.3,0,0,0,.208-.12.331.331,0,0,0-.041-.456.62.62,0,0,0-.131-.058c-.062-.028-.115-.072-.174-.1a1.039,1.039,0,0,0-.332-.077,1.7,1.7,0,0,1-.323-.117c-.127-.044-.268-.068-.4-.1a2.606,2.606,0,0,1-.27-.077Q4.277,1,4.175.94a2.041,2.041,0,0,0-.5-.147C3.41.745,3.144.669,2.883.6a1.09,1.09,0,0,1-.218-.07A2.2,2.2,0,0,0,2.452.419,2.052,2.052,0,0,0,2.1.359C1.965.333,1.834.3,1.7.268L1.388.178A.739.739,0,0,0,1.1.112.409.409,0,0,1,.978.1,2.557,2.557,0,0,1,.709.041.939.939,0,0,0,.257.027.32.32,0,0,0,.006.313.317.317,0,0,0,.114.576.392.392,0,0,0,.179.613a2.69,2.69,0,0,0,.284.1Z" transform="translate(0 0)" stroke="rgba(0,0,0,0)" stroke-width="1" fill="url(#linear-gradient)"/>
        </g>
        <path id="Path_40" data-name="Path 40" d="M.913.011A13.29,13.29,0,0,0,3.084,13.085,11.545,11.545,0,0,0,.821.63" transform="translate(14.461 76.313) rotate(30)" stroke="rgba(0,0,0,0)" stroke-width="1" fill="url(#linear-gradient)"/>
        <g id="Group_42" data-name="Group 42" transform="translate(17.155 54.985) rotate(30)">
          <path id="Path_42" data-name="Path 42" d="M2.151.526a1.251,1.251,0,0,0-.1.25c-.112.4-.3.777-.437,1.17-.073.206-.187.4-.25.607l-.065.3a1.769,1.769,0,0,1-.192.465,1.987,1.987,0,0,0-.191.543C.876,3.979.837,4.1.794,4.22c-.065.182-.149.362-.2.547a4.721,4.721,0,0,1-.173.639,1.394,1.394,0,0,0-.091.237c-.026.112-.011.231-.034.343a1.4,1.4,0,0,1-.076.219,2.519,2.519,0,0,0-.116.421A.764.764,0,0,0,.1,6.909a.308.308,0,0,0,.147.213.407.407,0,0,0,.285.029A.356.356,0,0,0,.75,6.987a.855.855,0,0,0,.055-.16c.027-.074.074-.14.1-.214a1.414,1.414,0,0,0,.066-.371A1.941,1.941,0,0,1,1.1,5.86c.049-.152.073-.312.111-.465.026-.105.054-.212.09-.315a2.609,2.609,0,0,1,.132-.251,2.9,2.9,0,0,0,.182-.58c.076-.3.181-.612.286-.911A1.241,1.241,0,0,1,2,3.09c.05-.081.1-.159.151-.243a2.693,2.693,0,0,0,.112-.4c.046-.15.1-.3.159-.446l.149-.359a.982.982,0,0,0,.12-.32.5.5,0,0,1,.037-.14A2.959,2.959,0,0,1,2.845.883,1.2,1.2,0,0,0,2.956.365.331.331,0,0,0,2.7.036.363.363,0,0,0,2.39.128.538.538,0,0,0,2.334.2a2.8,2.8,0,0,0-.183.326Z" transform="translate(0 0)" stroke="rgba(0,0,0,0)" stroke-width="1" fill="url(#linear-gradient)"/>
        </g>
        <path id="Path_44" data-name="Path 44" d="M12.231.147C9.884,1.266,7.41,2.165,5.177,3.468a11.021,11.021,0,0,0-5.06,5.4C1.571,7.676,3.755,7.331,5.56,6.634A12.537,12.537,0,0,0,12.227.757" transform="translate(9.208 49.283) rotate(30)" stroke="rgba(0,0,0,0)" stroke-width="1" fill="url(#linear-gradient)"/>
        <g id="Group_43" data-name="Group 43" transform="translate(30.499 40.803) rotate(30)">
          <path id="Path_45" data-name="Path 45" d="M.009.529A.752.752,0,0,0,.026.745c.075.328.073.663.142.988.031.174.026.348.073.519.023.081.067.152.089.231a1.206,1.206,0,0,1,.064.4,1.232,1.232,0,0,0,.114.448c.034.1.064.2.09.293.039.15.064.305.118.452a3.249,3.249,0,0,1,.193.5.985.985,0,0,0,.05.2c.038.086.116.155.157.239a1,1,0,0,1,.058.181,1.548,1.548,0,0,0,.132.326.556.556,0,0,0,.142.181.333.333,0,0,0,.241.069.362.362,0,0,0,.346-.323.518.518,0,0,0-.04-.127c-.019-.059-.014-.123-.029-.182a.938.938,0,0,0-.143-.267,1.2,1.2,0,0,1-.1-.3,3.226,3.226,0,0,0-.158-.347,1.9,1.9,0,0,1-.089-.252,1.278,1.278,0,0,1-.018-.219,1.887,1.887,0,0,0-.146-.455A5.458,5.458,0,0,1,1.1,2.575a.664.664,0,0,1-.033-.206,1.9,1.9,0,0,0,.006-.211,1.759,1.759,0,0,0-.093-.311,3.256,3.256,0,0,1-.069-.359c-.014-.1-.021-.206-.029-.3A.626.626,0,0,0,.847.928.31.31,0,0,1,.821.819,1.39,1.39,0,0,1,.8.576.82.82,0,0,0,.68.178.384.384,0,0,0,.31.007a.33.33,0,0,0-.25.16.415.415,0,0,0-.022.07A1.531,1.531,0,0,0,.009.529Z" transform="translate(0 0)" stroke="rgba(0,0,0,0)" stroke-width="1" fill="url(#linear-gradient)"/>
        </g>
        <g id="Group_44" data-name="Group 44" transform="translate(49.893 27.268) rotate(30)">
          <path id="Path_47" data-name="Path 47" d="M2.475,1.139c-.089.167-.171.337-.248.524-.307.83-.679,1.654-.927,2.507-.148.445-.3.887-.408,1.341-.036.215-.071.422-.107.636C.7,6.515.651,6.838.542,7.192A6.69,6.69,0,0,0,.35,8.4l-.075.812c-.052.409-.086.825-.107,1.236l.019,1.409a4.306,4.306,0,0,0-.024.539c.014.245.083.479.106.723.021.168.012.34.027.509.019.306.05.613.1.916a3.334,3.334,0,0,0,.147.565.6.6,0,0,0,.252.35c.2.071.378-.159.371-.579,0-.116-.028-.237-.04-.354-.018-.166,0-.328-.006-.493-.014-.262-.084-.525-.116-.781a7.188,7.188,0,0,1-.039-.846L.919,11.4c0-.228-.006-.459.006-.689A5.49,5.49,0,0,1,1,10.131c.051-.422.067-.845.1-1.267a16.981,16.981,0,0,1,.282-1.983,3.655,3.655,0,0,1,.13-.548c.062-.185.121-.368.182-.554.084-.27.129-.575.2-.853.079-.32.187-.633.3-.949.083-.258.189-.509.285-.763a6.377,6.377,0,0,0,.262-.673,2.3,2.3,0,0,1,.1-.281A6.125,6.125,0,0,1,3.1,1.632,7.369,7.369,0,0,0,3.5.606c.076-.274.056-.563-.114-.565A.562.562,0,0,0,2.964.3L2.857.457a6.239,6.239,0,0,0-.382.682Z" transform="translate(0 0)" stroke="rgba(0,0,0,0)" stroke-width="1" fill="url(#linear-gradient)"/>
        </g>
        <g id="Group_45" data-name="Group 45" transform="translate(48.342 32.578) rotate(30)">
          <path id="Path_48" data-name="Path 48" d="M.123.789a1.59,1.59,0,0,0,.108.283C.449,1.486.6,1.93.8,2.347c.106.222.175.456.292.673l.184.284a2.309,2.309,0,0,1,.228.514,2.441,2.441,0,0,0,.292.576L2,4.771c.1.193.182.4.294.583a6.107,6.107,0,0,1,.385.639,1.809,1.809,0,0,0,.123.254c.071.111.175.2.248.3a1.746,1.746,0,0,1,.126.235,3.154,3.154,0,0,0,.247.417,1.023,1.023,0,0,0,.211.234.372.372,0,0,0,.276.085.353.353,0,0,0,.23-.164.311.311,0,0,0,.021-.27,1.061,1.061,0,0,0-.088-.169c-.039-.078-.059-.164-.1-.244a1.838,1.838,0,0,0-.249-.351,2.62,2.62,0,0,1-.217-.4c-.085-.156-.2-.305-.29-.457-.066-.105-.132-.21-.187-.319a2.824,2.824,0,0,1-.107-.292,3.766,3.766,0,0,0-.332-.6c-.187-.3-.353-.624-.511-.94a1.5,1.5,0,0,1-.122-.273,2.977,2.977,0,0,0-.088-.3,3.511,3.511,0,0,0-.23-.409c-.08-.15-.153-.31-.223-.47l-.159-.4a1.271,1.271,0,0,0-.157-.344A.729.729,0,0,1,1.031.992,3.236,3.236,0,0,1,.894.66,1.623,1.623,0,0,0,.6.151.374.374,0,0,0,.17.027.314.314,0,0,0,0,.3a.764.764,0,0,0,.01.1A3.1,3.1,0,0,0,.123.789Z" transform="translate(0 0)" stroke="rgba(0,0,0,0)" stroke-width="1" fill="url(#linear-gradient)"/>
        </g>
        <g id="Group_46" data-name="Group 46" transform="translate(35.973 31.417) rotate(30)">
          <path id="Path_51" data-name="Path 51" d="M4.908.222A.669.669,0,0,0,4.739.34a4.933,4.933,0,0,1-.8.5c-.142.087-.314.124-.459.213-.069.039-.122.092-.191.129a.954.954,0,0,1-.366.136,1.484,1.484,0,0,0-.415.16,2.652,2.652,0,0,1-.277.1c-.142.048-.3.064-.435.119a2.227,2.227,0,0,1-.49.152.946.946,0,0,0-.195.029c-.084.027-.153.084-.245.11a.745.745,0,0,1-.186.026,1.686,1.686,0,0,0-.335.054.511.511,0,0,0-.2.084.279.279,0,0,0-.108.2.357.357,0,0,0,.273.387.677.677,0,0,0,.148-.008,1.677,1.677,0,0,0,.206,0,.9.9,0,0,0,.306-.089,1.8,1.8,0,0,1,.338-.058q.2-.05.387-.119a2.437,2.437,0,0,1,.265-.08c.081-.016.154-.014.24-.024a1.671,1.671,0,0,0,.485-.167l.734-.314a1.285,1.285,0,0,1,.21-.081,2.237,2.237,0,0,0,.245-.056,1.814,1.814,0,0,0,.294-.182L4.5,1.367l.287-.153a.6.6,0,0,0,.236-.152.361.361,0,0,1,.09-.076L5.329.835A.723.723,0,0,0,5.614.518a.3.3,0,0,0-.1-.359.4.4,0,0,0-.287-.1.367.367,0,0,0-.069.027A2.654,2.654,0,0,0,4.908.222Z" transform="translate(0 0)" stroke="rgba(0,0,0,0)" stroke-width="1" fill="url(#linear-gradient)"/>
        </g>
        <g id="Group_47" data-name="Group 47" transform="translate(33.213 31.075) rotate(30)">
          <path id="Path_52" data-name="Path 52" d="M.967,5.745a1.971,1.971,0,0,0,.173-.28,7.371,7.371,0,0,1,.923-1.257c.169-.218.4-.381.581-.592L2.9,3.329a2.179,2.179,0,0,1,.5-.4,4.866,4.866,0,0,0,.588-.447c.128-.1.267-.188.4-.277.207-.138.446-.237.653-.375A4.638,4.638,0,0,1,5.8,1.415,2.88,2.88,0,0,0,6.1,1.294c.134-.069.25-.155.388-.221a1.631,1.631,0,0,1,.294-.1A4.949,4.949,0,0,0,7.331.8,1.391,1.391,0,0,0,7.657.642.349.349,0,0,0,7.83.4c.008-.18-.18-.333-.472-.311a1.73,1.73,0,0,0-.238.053L6.788.213a2.117,2.117,0,0,0-.5.21q-.26.114-.532.2c-.208.093-.406.2-.6.307-.133.076-.266.152-.4.219l-.362.153a3.559,3.559,0,0,0-.711.461c-.347.264-.7.535-1.029.819-.1.076-.182.165-.283.236s-.213.138-.315.224a4.2,4.2,0,0,0-.373.431l-.416.487c-.118.131-.221.272-.335.406a1.334,1.334,0,0,0-.267.379.955.955,0,0,1-.095.168l-.226.366a1.576,1.576,0,0,0-.261.639c-.028.181.042.378.2.4A.418.418,0,0,0,.639,6.21.965.965,0,0,0,.71,6.125Z" transform="translate(0 0)" stroke="rgba(0,0,0,0)" stroke-width="1" fill="url(#linear-gradient)"/>
        </g>
        <path id="Path_54" data-name="Path 54" d="M13.759,2.179A22.228,22.228,0,0,0,9.132.565a8.033,8.033,0,0,0-5-.166c-.7.24-1.347.616-2.04.862s-1.36.78-2.065.512a27.311,27.311,0,0,0,13.616.857" transform="translate(25.187 25.177) rotate(30)" stroke="rgba(0,0,0,0)" stroke-width="1" fill="url(#linear-gradient)"/>
        <g id="Group_48" data-name="Group 48" transform="translate(61.048 19.349) rotate(30)">
          <path id="Path_55" data-name="Path 55" d="M10.037.146a3,3,0,0,0-.411-.03C9,.131,8.356.081,7.724.121c-.334.011-.666,0-1,.037L6.276.242A5.649,5.649,0,0,1,5.508.31a4.143,4.143,0,0,0-.861.131L4.09.561C3.8.609,3.51.668,3.23.743c-.32.1-.622.208-.95.291a3.52,3.52,0,0,0-.366.094c-.162.059-.306.156-.458.22a3.3,3.3,0,0,1-.338.106,5.762,5.762,0,0,0-.6.231,1.675,1.675,0,0,0-.342.209.343.343,0,0,0-.15.269c.024.178.253.3.538.233A1.993,1.993,0,0,0,.8,2.309c.109-.04.224-.054.333-.088a3.826,3.826,0,0,0,.5-.229,4.145,4.145,0,0,1,.556-.181c.221-.065.439-.157.66-.229.153-.047.306-.095.46-.135a3.5,3.5,0,0,1,.4-.046c.295-.044.583-.134.869-.2A12.244,12.244,0,0,1,5.959.959a2.278,2.278,0,0,1,.4-.037c.138,0,.275.01.412,0A5.548,5.548,0,0,0,7.388.853c.232-.023.461-.028.7-.035.191,0,.383,0,.574.007A2.9,2.9,0,0,0,9.168.83a1.172,1.172,0,0,1,.208,0,4.145,4.145,0,0,1,.477.02,3.417,3.417,0,0,0,.769-.022c.2-.036.395-.156.357-.3A.389.389,0,0,0,10.717.27l-.13-.041a4.481,4.481,0,0,0-.55-.083Z" transform="translate(0 0)" stroke="rgba(0,0,0,0)" stroke-width="1" fill="url(#linear-gradient)"/>
        </g>
        <g id="Group_49" data-name="Group 49" transform="translate(60.421 18.916) rotate(30)">
          <path id="Path_56" data-name="Path 56" d="M5.526.381A.828.828,0,0,0,5.312.357C4.98.366,4.647.3,4.312.282,4.141.271,3.971.218,3.8.218c-.082,0-.154.018-.243.015a1.2,1.2,0,0,1-.4-.053A1.418,1.418,0,0,0,2.692.141,2.074,2.074,0,0,1,2.384.122C2.23.106,2.076.072,1.922.068A2.951,2.951,0,0,1,1.4.048,1.012,1.012,0,0,0,1.2.016c-.092,0-.183.037-.275.04A.98.98,0,0,1,.736.032,1.649,1.649,0,0,0,.393.006.548.548,0,0,0,.175.05.278.278,0,0,0,.024.223.353.353,0,0,0,.2.648.641.641,0,0,0,.331.671C.4.68.455.711.518.724A.975.975,0,0,0,.824.716a1.444,1.444,0,0,1,.323.032c.126.011.258,0,.386,0A2.438,2.438,0,0,1,1.8.764a2.186,2.186,0,0,1,.214.053A1.908,1.908,0,0,0,2.5.847c.255,0,.515.017.769.037a1.012,1.012,0,0,1,.214.029q.108.039.219.067a1.991,1.991,0,0,0,.337,0c.126,0,.254.012.38.024s.208.025.308.039A.659.659,0,0,0,5,1.072a.393.393,0,0,1,.117,0,2.326,2.326,0,0,1,.277.01.843.843,0,0,0,.418-.046A.315.315,0,0,0,6.009.723.32.32,0,0,0,5.88.475.456.456,0,0,0,5.812.446,2.037,2.037,0,0,0,5.526.381Z" transform="translate(0 0)" stroke="rgba(0,0,0,0)" stroke-width="1" fill="url(#linear-gradient)"/>
        </g>
        <path id="Path_58" data-name="Path 58" d="M14.3.313a47.29,47.29,0,0,1-14.173,9,33.005,33.005,0,0,0,1.793-3.4A9.944,9.944,0,0,1,7.272,1.658,30.568,30.568,0,0,1,14.351.173" transform="translate(48.98 14.291) rotate(30)" stroke="rgba(0,0,0,0)" stroke-width="1" fill="url(#linear-gradient)"/>
        <g id="Group_50" data-name="Group 50" transform="translate(85.516 23.72) rotate(30)">
          <path id="Path_59" data-name="Path 59" d="M15.307.19c-.22,0-.44,0-.676.021a30.12,30.12,0,0,0-3.09.422c-.531.1-1.06.2-1.586.337l-.7.247c-.42.123-.765.261-1.185.361a9.126,9.126,0,0,0-1.319.5l-.848.38c-.433.186-.864.39-1.281.6l-1.373.8c-.179.1-.359.189-.53.3-.232.152-.42.335-.646.492-.152.111-.323.2-.479.31q-.444.284-.844.6a3.986,3.986,0,0,0-.466.433.6.6,0,0,0-.2.395c.041.192.366.2.768-.043.111-.068.215-.155.323-.234.152-.108.317-.189.473-.29.253-.159.469-.364.706-.535.266-.2.528-.34.8-.51l.958-.6L4.8,3.789q.3-.145.612-.262c.443-.195.873-.412,1.311-.622a18.994,18.994,0,0,1,2.136-.841,4.261,4.261,0,0,1,.613-.183l.658-.141c.316-.072.651-.185.968-.27.366-.1.745-.159,1.119-.232.307-.06.614-.087.932-.13.261-.038.587-.042.829-.094a3.514,3.514,0,0,1,.352-.048A6.785,6.785,0,0,1,15.1.917c.423-.016.874-.049,1.267-.1C16.7.77,17,.633,16.921.491A.65.65,0,0,0,16.446.25L16.231.224A7.1,7.1,0,0,0,15.307.19Z" transform="translate(0 0)" stroke="rgba(0,0,0,0)" stroke-width="1" fill="url(#linear-gradient)"/>
        </g>
        <path id="Path_61" data-name="Path 61" d="M11.252.135a22.3,22.3,0,0,1-.675,4.313,6.252,6.252,0,0,1-2.3,3.142A21.363,21.363,0,0,1,4.15,9.25,10.189,10.189,0,0,0,.159,12.1,29.961,29.961,0,0,1,4.042,4.491,11.568,11.568,0,0,1,11.252.135" transform="translate(74.381 23.419) rotate(30)" stroke="rgba(0,0,0,0)" stroke-width="1" fill="url(#linear-gradient)"/>
        <g id="Group_53" data-name="Group 53" transform="translate(14.099 5.391)">
          <path id="Path_41" data-name="Path 41" d="M.019,1.434A2.663,2.663,0,0,0,1.226,3.28a8.318,8.318,0,0,0,2.149.985,72.351,72.351,0,0,0,10.66,2.762,26.682,26.682,0,0,0-2.976-4.144A8.094,8.094,0,0,0,7.151.247a10.623,10.623,0,0,0-7.1,1.119" transform="translate(7.541 68.658) rotate(30)" stroke="rgba(0,0,0,0)" stroke-width="1" fill="url(#linear-gradient-18)"/>
          <path id="Path_50" data-name="Path 50" d="M.452.414A12.7,12.7,0,0,0,1.465,9.405a15.544,15.544,0,0,0,6.706,7.163,31.967,31.967,0,0,1-.887-7.323A10.8,10.8,0,0,0,5.5,4.011,11.309,11.309,0,0,0,.388,0" transform="translate(28.686 34.651) rotate(30)" stroke="rgba(0,0,0,0)" stroke-width="1" fill="url(#linear-gradient-18)"/>
          <path id="Path_53" data-name="Path 53" d="M9.737.117A13.072,13.072,0,0,0,3.149,6.155a35.4,35.4,0,0,0-2.959,8.3C5.318,11.254,9.334,5.533,9.782.294" transform="translate(8.78 25.815) rotate(30)" stroke="rgba(0,0,0,0)" stroke-width="1" fill="url(#linear-gradient-18)"/>
          <path id="Path_57" data-name="Path 57" d="M15.452,5.7A11.562,11.562,0,0,0,7.706.6C5.066.137,2.561.765,0,0A21.869,21.869,0,0,0,15.56,6.161" transform="translate(36.438 1.591) rotate(30)" stroke="rgba(0,0,0,0)" stroke-width="1" fill="url(#linear-gradient-18)"/>
          <path id="Path_62" data-name="Path 62" d="M13.625.527C8.019.3,2.987,3.415,1.185,8.237A15.632,15.632,0,0,1,.15,11.4a27.235,27.235,0,0,0,8.4-5.523c1.736-1.915,2.9-4.367,5.19-5.714" transform="translate(68.87 27.857) rotate(30)" stroke="rgba(0,0,0,0)" stroke-width="1" fill="url(#linear-gradient-18)"/>
        </g>
        <g id="Group_51" data-name="Group 51" transform="translate(94.336 36.803) rotate(30)">
          <path id="Path_63" data-name="Path 63" d="M28.08.608C27.718.564,27.357.526,26.966.5,25.252.411,23.514.27,21.79.263c-.906-.011-1.81-.022-2.719-.009L17.825.334c-.735.028-1.363.079-2.079.085q-1.191.04-2.37.19l-1.563.18c-.8.081-1.592.189-2.38.3l-2.677.488c-.339.058-.681.11-1.017.181-.46.1-.887.246-1.345.354l-.954.208c-.572.134-1.147.268-1.71.429C1.367,2.858,1,2.973.691,3.1a1.556,1.556,0,0,0-.627.367c-.114.21.342.286,1.138.119.221-.047.447-.117.67-.175.306-.081.626-.133.94-.2.508-.109.994-.27,1.493-.4.562-.145,1.061-.234,1.612-.344l1.925-.4,1.329-.231c.4-.067.745-.08,1.138-.127l2.486-.31c1.288-.162,2.618-.27,3.926-.343.37-.027.744-.043,1.108-.039l1.146.014c.557.007,1.159-.037,1.725-.05C21.345.962,22,.986,22.65,1c.535.006,1.077.047,1.6.071.449.018,1,.081,1.42.079.181,0,.4.015.594.025.443.019.883.06,1.324.108.716.068,1.486.122,2.155.144.555.007,1.076-.066.946-.223a1.4,1.4,0,0,0-.759-.326L29.578.808C29.072.716,28.589.665,28.08.608Z" transform="translate(0 0)" stroke="rgba(0,0,0,0)" stroke-width="1" fill="url(#linear-gradient)"/>
        </g>
        <g id="Group_52" data-name="Group 52" transform="translate(7.619 12.063)">
          <path id="Path_37" data-name="Path 37" d="M.256,0a7.555,7.555,0,0,0,1.48,6.609,14.758,14.758,0,0,0,5.9,4.347,46.721,46.721,0,0,0,7.206,2.271c-2.225-1.5-3.372-4.445-4.658-6.685A14.815,14.815,0,0,0,.072.183" transform="translate(10.129 72.682) rotate(30)" stroke="rgba(0,0,0,0)" stroke-width="1" fill="url(#linear-gradient)"/>
          <path id="Path_46" data-name="Path 46" d="M0,.123A34.406,34.406,0,0,1,1.887,6.586,11.961,11.961,0,0,0,5.195,11.6a38.986,38.986,0,0,0,4.942,3.816c-1.748-2.93-.281-7.2-1.81-10.23A8.059,8.059,0,0,0,5.047,1.992,30.92,30.92,0,0,0,.252,0" transform="translate(21.385 33.518) rotate(30)" stroke="rgba(0,0,0,0)" stroke-width="1" fill="url(#linear-gradient)"/>
          <path id="Path_60" data-name="Path 60" d="M26.583,6.553A53.782,53.782,0,0,0,13.7.831,18.125,18.125,0,0,0,.03,2.252C1.774,4.617,4.816,5.616,7.868,6.066a40.575,40.575,0,0,0,9.208-.11,30.041,30.041,0,0,1,9.194.263" transform="translate(74.018 3.231) rotate(30)" stroke="rgba(0,0,0,0)" stroke-width="1" fill="url(#linear-gradient)"/>
          <path id="Path_64" data-name="Path 64" d="M12.541.151c.364,3.265-1.662,6.331-4.193,8.584S2.751,12.684.2,14.912a5.579,5.579,0,0,0,1.082-3.65A11.882,11.882,0,0,1,1.8,7.651a8.811,8.811,0,0,1,4.76-4.029A16.1,16.1,0,0,0,12.05.3" transform="translate(86.972 26.045) rotate(30)" stroke="rgba(0,0,0,0)" stroke-width="1" fill="url(#linear-gradient)"/>
        </g>
        <path id="Path_65" data-name="Path 65" d="M19.024,4.383c-3.164-.389-6.014-3.309-9.11-4.05C6.483-.486,2.962.939.035,2.677c3.18,1.025,6.9.241,10.245.264a35.842,35.842,0,0,1,8.231,1.367" transform="translate(95.692 33.197) rotate(30)" stroke="rgba(0,0,0,0)" stroke-width="1" fill="url(#linear-gradient)"/>
        <g id="Group_54" data-name="Group 54" transform="translate(1.39 31.147)">
          <path id="Path_43" data-name="Path 43" d="M3.627.044A4.9,4.9,0,0,0,.981,3.159,15.219,15.219,0,0,0,.227,7.787a70.12,70.12,0,0,0,.232,9.83A16.274,16.274,0,0,0,4.131,4.434a15.134,15.134,0,0,1-.5-4.391" transform="translate(10.522 27.559) rotate(30)" stroke="rgba(0,0,0,0)" stroke-width="1" fill="url(#linear-gradient-29)"/>
          <path id="Path_49" data-name="Path 49" d="M.029,2.209C3.667,6.019,6.744,9.1,13.186,9.985A21.411,21.411,0,0,1,10.1,6.113,15.529,15.529,0,0,0,7.789,2.238,6.209,6.209,0,0,0,3.727.057a3.549,3.549,0,0,0-3.7,2.152" transform="translate(47.487 7.784) rotate(30)" stroke="rgba(0,0,0,0)" stroke-width="1" fill="url(#linear-gradient-29)"/>
          <path id="Path_66" data-name="Path 66" d="M16.515,13.694c-2.5-2.279-3.061-5.782-5.105-8.415C8.859,1.993,4.328.5,0,0,2.475,1.668,4.046,4.791,6.555,6.419c1.614,1.045,3.664,1.492,5.077,2.762A15.588,15.588,0,0,1,13.6,11.7a4.982,4.982,0,0,0,2.511,1.987" transform="translate(113.104 4.937) rotate(30)" stroke="rgba(0,0,0,0)" stroke-width="1" fill="url(#linear-gradient-29)"/>
        </g>
      </g>
    </g>
  </g>
</svg>
