<svg width="256" height="256" viewBox="0 0 256 256" fill="none" xmlns="http://www.w3.org/2000/svg">
<g clip-path="url(#clip0_884_415)">
<mask id="mask0_884_415" style="mask-type:luminance" maskUnits="userSpaceOnUse" x="0" y="0" width="256" height="256">
<path d="M256 0H0V256H256V0Z" fill="white"/>
</mask>
<g mask="url(#mask0_884_415)">
<path d="M111.968 177.291C111.283 176.695 110.579 176.192 109.862 175.786C109.767 175.768 109.672 175.809 109.589 175.902C109.469 176.378 109.39 176.891 109.353 177.421L109.253 178.844H107.082L105.672 156.083H107.972L108.154 157.178C108.662 160.504 109.426 163.638 110.419 166.459C111.069 168.248 111.9 169.725 112.854 170.788C113.766 171.748 114.777 172.237 115.801 172.215C116.326 172.234 116.848 172.037 117.335 171.634C117.823 171.232 118.267 170.633 118.641 169.871C119.04 169.03 119.348 168.024 119.546 166.919C119.744 165.814 119.826 164.635 119.788 163.46C119.807 161.044 119.379 158.704 118.591 156.919C117.436 154.667 116.179 152.65 114.837 150.895L111.395 146.044C110.423 144.697 109.541 143.092 108.771 141.271L108.763 141.254C107.54 138.284 106.868 134.514 106.865 130.615C106.797 125.956 107.6 121.422 109.107 117.952C109.853 116.274 110.767 114.951 111.784 114.073C112.802 113.196 113.9 112.785 115.002 112.87C116.224 112.971 117.427 113.523 118.555 114.5C119.203 115.069 119.869 115.554 120.547 115.951C120.693 115.983 120.84 115.922 120.969 115.776C121.118 115.29 121.219 114.746 121.265 114.178L121.403 112.885H123.49L124.528 135.646H122.159L122.015 134.37C121.7 130.062 120.693 126.098 119.156 123.114C118.076 121.202 116.718 120.091 115.297 119.955C114.41 119.919 113.549 120.574 112.885 121.79C112.564 122.39 112.312 123.132 112.148 123.96C111.985 124.788 111.914 125.682 111.941 126.575C111.915 128.341 112.186 130.071 112.709 131.469C113.495 133.398 114.422 135.061 115.456 136.399L118.992 141.329C120.848 143.696 122.494 146.698 123.862 150.206V150.24C124.87 153.257 125.392 156.854 125.353 160.52C125.381 162.981 125.161 165.427 124.706 167.703C124.252 169.979 123.575 172.035 122.716 173.741C121.841 175.476 120.806 176.831 119.674 177.727C118.541 178.624 117.334 179.043 116.122 178.961C114.701 178.93 113.296 178.363 111.974 177.29L111.968 177.291ZM19.731 178.852L9.61842 127.814C9.20319 125.175 8.58424 122.692 7.78546 120.461C7.29563 119.596 6.67255 119.12 6.02812 119.119L5.33105 119.012V114.184H17.529V119.232L16.791 119.255C16.1719 119.199 15.552 119.321 14.9489 119.616C14.8108 119.675 14.6884 119.839 14.6062 120.076C14.524 120.313 14.4879 120.605 14.5052 120.894C14.5387 121.754 14.6377 122.597 14.7986 123.392C15.0218 124.691 15.4491 126.922 16.0686 130.018L21.6104 157.963L26.6867 127.492C26.9272 126.042 27.112 124.789 27.2332 123.804C27.3299 123.131 27.3863 122.436 27.4009 121.734C27.4297 121.328 27.3931 120.913 27.2966 120.554C27.2001 120.195 27.0492 119.912 26.8671 119.748C26.3232 119.381 25.7525 119.212 25.1807 119.249L24.4518 119.2V114.18H34.1754V118.901L33.5377 119.104C32.9899 119.184 32.4654 119.594 32.029 120.283C31.2727 122.105 30.7234 124.253 30.4218 126.571L21.3397 178.846L19.731 178.852ZM238.188 177.785V172.891L238.875 172.766C240.908 172.39 241.343 171.526 241.41 171.354C241.476 171.183 241.821 170.052 241.821 165.163V132.17L232.76 177.794H231.248L222.36 134.123V162.72C222.36 168.621 222.831 170.617 223.113 171.281C223.249 171.594 223.751 172.352 225.464 172.772L226.132 172.938V177.792H215.19V172.928L215.862 172.772C217.763 172.331 218.367 171.371 218.553 170.835C218.715 170.379 219.093 168.68 219.093 162.715V125.737C219.093 121.939 218.773 120.843 218.637 120.539C218.523 120.292 218 119.469 215.995 119.251L215.284 119.172V114.184H224.464L233.278 157.653L241.702 114.184H250.952V119.14L250.256 119.251C248.49 119.541 247.984 120.284 247.85 120.597C247.747 120.828 247.417 121.89 247.417 125.741V166.231C247.417 170.184 247.736 171.161 247.833 171.385C247.972 171.674 248.485 172.414 250.267 172.768L250.949 172.906V177.8L238.188 177.785ZM193.785 177.785V172.902L194.465 172.766C195.156 172.719 195.842 172.476 196.501 172.043C196.562 171.736 196.586 171.404 196.572 171.074C196.545 170.422 196.487 169.777 196.4 169.148C196.266 168.019 196.095 166.909 195.888 165.828L194.414 158.097H184.886C183.96 163.368 183.396 166.664 183.209 167.872C183.062 168.7 182.973 169.567 182.946 170.447C182.946 171.535 183.136 171.897 183.341 172.117C183.876 172.515 184.438 172.734 185.007 172.764L185.691 172.894V177.788H176.223V172.941L176.885 172.77C177.242 172.727 177.59 172.522 177.905 172.171C178.219 171.821 178.493 171.332 178.707 170.739C179.735 166.93 180.593 162.934 181.27 158.803L189.855 113.107H191.624L191.82 114.12L201.837 165.721C202.155 167.798 202.633 169.757 203.253 171.52C203.717 172.266 204.281 172.701 204.869 172.766L205.507 172.97V177.777L193.785 177.785ZM186.205 151.023H193.211L189.685 132.038L186.205 151.023ZM153.466 177.785V172.915L154.14 172.764C156.132 172.318 156.555 171.503 156.62 171.345C156.659 171.249 157.004 170.261 157.004 165.16V149.16H146.303V166.223C146.303 170.165 146.634 171.176 146.736 171.39C146.88 171.695 147.404 172.441 149.17 172.759L149.859 172.883V177.777H137.189V172.922L137.857 172.761C139.842 172.273 140.275 171.456 140.342 171.311C140.38 171.219 140.726 170.253 140.726 165.165V125.73C140.726 121.851 140.393 120.8 140.29 120.58C140.151 120.269 139.639 119.522 137.884 119.24L137.19 119.129V114.176H149.859V119.132L149.165 119.243C147.407 119.533 146.887 120.283 146.745 120.591C146.641 120.817 146.305 121.858 146.305 125.732V141.773H157.006V125.732C157.006 121.847 156.676 120.802 156.577 120.572C156.442 120.266 155.939 119.522 154.166 119.242L153.472 119.131V114.174H166.141V119.131L165.447 119.242C163.692 119.531 163.179 120.275 163.042 120.582C162.939 120.811 162.606 121.852 162.606 125.732V166.221C162.606 170.163 162.929 171.151 163.029 171.366C163.17 171.656 163.69 172.405 165.463 172.759L166.145 172.896V177.779L153.466 177.785ZM81.3121 177.785V172.875L82.0063 172.763C82.9732 172.846 83.9333 172.391 84.7859 171.445C84.8305 171.368 85.2214 170.575 85.2214 166.225V125.737C85.2214 121.785 84.8569 120.761 84.7485 120.54C84.5882 120.224 84.0042 119.464 82.0246 119.247L81.313 119.172V114.184H94.7052V119.181L93.9936 119.257C92.014 119.471 91.4309 120.232 91.2697 120.55C91.1594 120.77 90.7977 121.796 90.7977 125.747V166.24C90.7977 170.57 91.1822 171.379 91.2332 171.46C92.086 172.405 93.0459 172.86 94.0128 172.778L94.7069 172.891V177.8L81.3121 177.785ZM63.9779 177.785L63.7539 177.129L54.4076 149.82L53.2706 149.933V166.225C53.2706 170.323 53.6241 171.24 53.696 171.381C54.4524 172.35 55.3312 172.831 56.2205 172.764L56.9038 172.898V177.792H44.235V172.911L44.9127 172.768C46.8258 172.365 47.2313 171.498 47.2932 171.319C47.3843 171.065 47.6905 169.869 47.6905 165.154V125.737C47.6905 121.918 47.3634 120.86 47.2632 120.629C47.1348 120.318 46.6355 119.562 44.9209 119.249L44.2341 119.121V114.191H56.1166C58.184 114.07 60.2427 114.787 62.1767 116.301C63.6573 117.475 64.9289 119.555 65.8208 122.265C66.6775 125.121 67.1088 128.434 67.0608 131.793C67.1219 133.968 66.9544 136.144 66.5699 138.172C66.1854 140.2 65.5929 142.032 64.8333 143.543C64.0903 144.91 63.2454 146.021 62.3308 146.831C61.7119 147.384 61.0719 147.831 60.4176 148.168L67.9162 169.047C68.2717 170.108 68.7189 171.025 69.2354 171.752C69.7473 172.346 70.3163 172.699 70.9018 172.787L71.5759 172.938V177.805L63.9779 177.785ZM53.3344 121.314C53.2817 121.699 53.2595 122.1 53.2688 122.5V143.191C55.0317 143.155 56.7802 142.532 58.4469 141.344C59.3002 140.612 60.0184 139.338 60.4976 137.706C60.9793 135.87 61.2143 133.801 61.1783 131.714C61.2121 129.711 61.0023 127.722 60.5679 125.93C60.159 124.399 59.5237 123.179 58.755 122.449C57.5683 121.408 56.2841 120.928 54.9961 121.043C54.4391 120.977 53.8803 121.069 53.3353 121.316L53.3344 121.314Z" fill="#9A239F"/>
<path d="M97.0449 241.239C97.6576 241.26 98.2503 240.787 98.6975 239.921C99.0163 238.434 99.142 236.801 99.0619 235.183V214.455L98.7776 213.702C98.5778 213.085 98.3127 212.57 98.0024 212.196C97.6949 211.969 97.3704 211.856 97.0439 211.863V210.991H100.603L108.607 233.611V217.888C108.703 216.135 108.523 214.365 108.094 212.84C107.667 212.179 107.146 211.832 106.613 211.853V210.991H111.491V211.861C110.902 211.861 110.335 212.329 109.909 213.169C109.565 214.638 109.428 216.277 109.512 217.899V242.633H109.157L99.9802 216.862V235.177C99.8844 236.919 100.059 238.679 100.478 240.203C100.893 240.869 101.403 241.231 101.928 241.235V242.084H97.0494L97.0449 241.239ZM118.805 229.38C118.129 229.861 117.484 230.508 116.883 231.307C116.468 231.76 116.117 232.424 115.862 233.236C115.607 234.048 115.456 234.981 115.425 235.947C115.402 236.523 115.445 237.102 115.551 237.637C115.657 238.171 115.822 238.647 116.033 239.025C116.283 239.444 116.595 239.671 116.916 239.669C117.375 239.66 117.822 239.364 118.198 238.82C118.383 238.602 118.536 238.289 118.644 237.91C118.752 237.532 118.81 237.102 118.812 236.663L118.805 229.38ZM113.612 237.529C113.615 236.423 113.75 235.337 114.007 234.367C114.264 233.398 114.634 232.576 115.083 231.976C116.26 230.483 117.505 229.23 118.799 228.235V226.283C118.832 225.18 118.764 224.074 118.597 223.023C118.464 222.495 118.255 222.063 117.999 221.788C117.743 221.513 117.453 221.407 117.167 221.485C116.818 221.487 116.477 221.694 116.183 222.082C116.039 222.253 115.92 222.5 115.838 222.798C115.756 223.096 115.714 223.433 115.716 223.776C115.723 224.089 115.74 224.4 115.767 224.708C115.792 224.985 115.809 225.264 115.818 225.545C115.836 225.885 115.811 226.229 115.745 226.543C115.679 226.857 115.575 227.13 115.443 227.336C115.291 227.539 115.112 227.64 114.93 227.625C114.796 227.64 114.662 227.586 114.539 227.468C114.417 227.351 114.311 227.172 114.231 226.95C114.071 226.518 113.985 225.988 113.987 225.444C114.017 224.79 114.109 224.155 114.26 223.577C114.411 222.999 114.617 222.49 114.866 222.08C115.576 220.814 116.501 220.182 117.436 220.322C117.971 220.2 118.51 220.412 118.985 220.93C119.461 221.447 119.85 222.247 120.103 223.226C120.389 224.689 120.518 226.264 120.478 227.84V237.045C120.465 237.661 120.492 238.279 120.56 238.88C120.584 239.14 120.652 239.372 120.753 239.537C120.853 239.701 120.978 239.786 121.106 239.776C121.239 239.786 121.37 239.731 121.491 239.616C121.677 239.387 121.854 239.126 122.019 238.837V240.032C121.822 240.59 121.586 241.085 121.319 241.502C120.991 242.044 120.586 242.35 120.166 242.372C119.97 242.405 119.774 242.329 119.598 242.151C119.422 241.974 119.272 241.701 119.164 241.363C118.95 240.636 118.833 239.804 118.824 238.953C118.418 239.785 117.977 240.541 117.506 241.212C116.991 241.968 116.382 242.399 115.751 242.451C115.466 242.453 115.184 242.33 114.924 242.091C114.663 241.851 114.431 241.501 114.241 241.062C114.028 240.588 113.864 240.032 113.755 239.427C113.647 238.821 113.598 238.177 113.61 237.532L113.612 237.529ZM128.393 220.932V222.585H126.324L126.304 235.804C126.288 236.691 126.331 237.578 126.432 238.44C126.475 238.893 126.595 239.3 126.769 239.589C126.943 239.879 127.161 240.032 127.385 240.023C127.612 240.034 127.835 239.897 128.023 239.631C128.251 239.273 128.458 238.857 128.637 238.393L128.901 238.897L128.678 239.584C128.396 240.515 128.012 241.296 127.556 241.862C127.211 242.278 126.821 242.507 126.421 242.528C126.059 242.566 125.701 242.348 125.406 241.91C125.111 241.472 124.897 240.841 124.799 240.119C124.622 238.946 124.543 237.719 124.565 236.491V222.571H123.457C123.428 222.535 123.402 222.489 123.381 222.436C123.363 222.38 123.354 222.314 123.355 222.248C123.352 222.122 123.368 221.997 123.402 221.892C123.492 221.686 123.589 221.492 123.692 221.312C124.055 220.66 124.392 219.95 124.701 219.189C124.907 218.645 125.393 217.211 126.159 214.886C126.212 214.873 126.267 214.889 126.316 214.933C126.333 214.964 126.342 215.079 126.342 215.277V220.924L128.393 220.932ZM133.131 220.84V235.522C133.115 236.374 133.18 237.225 133.323 238.025C133.435 238.579 133.628 239.045 133.876 239.357C134.123 239.67 134.412 239.812 134.701 239.765C135.194 239.741 135.669 239.378 136.051 238.733C136.337 238.277 136.593 237.745 136.811 237.15V224.574C136.838 224.165 136.824 223.75 136.772 223.352C136.72 222.954 136.63 222.581 136.508 222.255C136.144 221.787 135.72 221.555 135.291 221.589V220.836H138.571V236.994C138.533 237.747 138.621 238.503 138.819 239.14C138.967 239.373 139.137 239.539 139.318 239.628C139.498 239.717 139.686 239.726 139.869 239.656V240.299C139.497 240.529 139.224 240.701 139.049 240.815C138.874 240.929 138.58 241.14 138.166 241.448C137.99 241.584 137.606 241.913 137.013 242.434C137.005 242.436 136.998 242.435 136.99 242.43C136.983 242.426 136.976 242.418 136.971 242.408C136.959 242.386 136.951 242.354 136.95 242.321C136.943 242.242 136.939 242.161 136.94 242.08V238.379C136.579 239.405 136.157 240.331 135.683 241.135C135.168 242.007 134.526 242.493 133.861 242.513C133.238 242.487 132.644 241.979 132.194 241.09C131.905 240.471 131.684 239.73 131.548 238.917C131.411 238.104 131.362 237.24 131.404 236.384V224.469C131.43 224.034 131.413 223.593 131.354 223.172C131.295 222.752 131.195 222.36 131.06 222.022C130.771 221.67 130.443 221.48 130.107 221.47V220.826L133.131 220.84ZM141.435 241.329C141.874 241.328 142.304 241.067 142.673 240.576C142.922 239.889 143.031 239.029 142.976 238.178V227.825C143.004 226.729 142.941 225.63 142.79 224.578C142.743 224.283 142.651 224.027 142.528 223.851C142.404 223.674 142.255 223.587 142.105 223.603C142.014 223.607 141.922 223.627 141.832 223.661C141.72 223.7 141.604 223.75 141.482 223.81V223.057L142.667 222.116C143.072 221.795 143.353 221.566 143.508 221.429C143.85 221.139 144.198 220.81 144.552 220.442C144.571 220.437 144.59 220.446 144.606 220.467C144.622 220.489 144.633 220.521 144.638 220.559C144.651 220.718 144.657 220.88 144.654 221.041V224.806C145.008 223.642 145.429 222.571 145.907 221.615C146.237 220.91 146.686 220.495 147.161 220.456C147.317 220.443 147.473 220.499 147.618 220.619C147.763 220.74 147.894 220.922 148.003 221.154C148.11 221.388 148.195 221.664 148.25 221.966C148.306 222.267 148.332 222.589 148.327 222.912C148.336 223.483 148.248 224.043 148.078 224.495C148.006 224.697 147.912 224.86 147.804 224.972C147.695 225.084 147.575 225.141 147.454 225.139C147.305 225.118 147.16 225.036 147.027 224.898C146.894 224.76 146.775 224.569 146.678 224.335C146.524 223.929 146.307 223.645 146.064 223.531C145.827 223.531 145.536 223.964 145.191 224.828C144.872 225.565 144.69 226.513 144.678 227.501V237.854C144.652 238.344 144.675 238.84 144.745 239.312C144.815 239.783 144.93 240.22 145.084 240.597C145.474 241.182 145.956 241.441 146.434 241.32V242.073H141.442L141.435 241.329ZM154.056 220.565C154.526 220.563 154.991 220.761 155.422 221.146C155.853 221.531 156.241 222.095 156.562 222.803C156.937 223.659 157.226 224.661 157.41 225.751C157.595 226.842 157.672 227.997 157.637 229.15H151.197C151.147 231.903 151.52 234.618 152.262 236.907C152.525 237.651 152.868 238.257 153.264 238.68C153.66 239.102 154.098 239.329 154.544 239.341C155.196 239.382 155.833 238.934 156.338 238.08C156.89 237.063 157.348 235.844 157.687 234.485L158.042 234.76C157.74 236.79 157.206 238.639 156.485 240.153C156.131 240.951 155.698 241.585 155.216 242.013C154.735 242.441 154.214 242.652 153.69 242.633C153.103 242.676 152.521 242.397 152.004 241.824C151.486 241.252 151.051 240.406 150.743 239.373C150.041 237.144 149.678 234.533 149.7 231.874C149.666 229.016 150.091 226.216 150.907 223.908C151.258 222.857 151.729 222.002 152.278 221.418C152.828 220.835 153.439 220.542 154.056 220.565ZM153.468 222.24C153.096 222.231 152.732 222.446 152.419 222.857C152.105 223.269 151.857 223.86 151.703 224.559C151.464 225.538 151.306 226.593 151.237 227.68H155.519C155.486 226.503 155.356 225.347 155.133 224.262C154.986 223.618 154.749 223.08 154.452 222.718C154.155 222.357 153.813 222.187 153.469 222.233L153.468 222.24Z" fill="#166F6E"/>
<path d="M39.8789 232.028H84.7828" stroke="#9A239F" stroke-width="2"/>
<path d="M176.904 232.028H221.808" stroke="#583981" stroke-width="2"/>
<g opacity="0.5">
<path d="M88.1468 102.985C89.5918 102.985 90.7632 100.334 90.7632 97.0636C90.7632 93.793 89.5918 91.1417 88.1468 91.1417C86.7017 91.1417 85.5303 93.793 85.5303 97.0636C85.5303 100.334 86.7017 102.985 88.1468 102.985Z" fill="#9A239F"/>
<path d="M88.1463 102.044C89.3398 102.044 90.3073 99.8144 90.3073 97.0636C90.3073 94.3128 89.3398 92.0829 88.1463 92.0829C86.9528 92.0829 85.9854 94.3128 85.9854 97.0636C85.9854 99.8144 86.9528 102.044 88.1463 102.044Z" stroke="#9A239F"/>
</g>
<path d="M171.011 177.55C171.911 173.957 172.706 170.295 173.391 166.583C176.691 149.171 177.696 131.027 176.315 113.811C175.604 104.887 174.17 96.3818 172.06 88.5735C171.545 86.8006 171.065 85.0431 170.486 83.4277L169.651 80.9665L168.734 78.5791C166.698 73.3992 164.372 68.6684 161.788 64.4529C158.887 59.715 155.695 55.6156 152.26 52.2193C150.026 49.9568 147.718 47.9237 145.344 46.1278C141.768 43.3365 138.041 41.1214 134.198 39.5042C129.846 37.6357 125.249 37.3014 120.626 38.5171L119.314 38.9603L118.004 39.545C117.129 39.9398 116.26 40.4195 115.401 40.9821C113.071 42.5518 110.8 44.5247 108.619 46.8732C107.09 48.5283 105.569 50.2673 104.1 52.1904C101.428 55.67 98.8549 59.4372 96.3971 63.4695C94.8001 66.0521 93.2218 68.7557 91.8428 71.2096C90.8527 72.9277 89.9035 74.7282 88.9989 76.6042C88.3637 78.1571 90.1038 75.5048 93.5091 69.806C94.455 68.2376 95.4502 66.5822 96.4352 64.9902C97.814 62.7744 99.1574 60.7234 100.573 58.6705C102.806 55.3605 105.13 52.2898 107.531 49.476C110.055 46.5582 112.72 44.1795 115.468 42.391C118.701 40.2781 122.033 39.1779 125.323 39.1381C127.583 39.1 129.815 39.442 131.992 40.1598C133.845 40.7757 135.667 41.5831 137.449 42.5788C141.395 44.7289 145.217 47.4298 148.886 50.6607C154.769 55.7406 160.051 62.6872 164.529 71.2321C165.789 73.7053 166.961 76.3342 168.038 79.1052C168.577 80.5715 169.14 81.9819 169.616 83.539L170.363 85.8329C170.605 86.6116 170.819 87.4367 171.048 88.2421C172.44 93.0763 173.559 98.2144 174.39 103.584C175.326 109.744 175.907 116.15 176.125 122.7C176.312 128.103 176.263 133.58 175.979 139.078C175.71 143.945 175.283 148.814 174.7 153.657C174.471 155.5 174.167 157.757 173.867 159.689C173.18 164.151 172.349 168.563 171.378 172.899C169.816 179.875 167.945 186.656 165.787 193.165C164.146 198.145 162.525 202.467 163.115 201.432C164.128 199.37 165.044 197.154 165.851 194.815C166.201 193.795 166.605 192.729 166.951 191.638C168.465 187.084 169.821 182.377 171.01 177.552L171.011 177.55Z" fill="url(#paint0_linear_884_415)"/>
<path d="M97.7405 53.361C97.6905 53.3395 97.6376 53.3367 97.5849 53.3527C97.3445 53.4221 97.1053 53.3722 96.8642 53.4067C96.7342 53.4281 96.6163 53.3699 96.4925 53.4075C96.433 53.428 96.3769 53.4809 96.3172 53.4981C96.2184 53.5382 96.1183 53.5378 96.0244 53.4968C95.9157 53.4671 95.802 53.4851 95.6922 53.5493C95.6188 53.5742 95.545 53.5912 95.4714 53.6003C95.36 53.6036 95.248 53.6192 95.1362 53.6471C95.0091 53.7213 94.8794 53.7693 94.7495 53.7904C94.7034 53.7851 94.6565 53.7912 94.6099 53.8084C94.5431 53.8314 94.4839 53.9406 94.4168 53.9771C94.3721 53.9991 94.3266 54.0102 94.2816 54.0103C94.1978 54.0163 94.1136 54.0453 94.0318 54.0964C93.9756 54.1271 93.9233 54.1838 93.8802 54.2608C93.8289 54.3637 93.798 54.4935 93.7934 54.6257C93.7791 54.7706 93.7882 54.9154 93.8195 55.0419C93.8508 55.1684 93.9029 55.2712 93.9693 55.3372C94 55.3347 94.0309 55.3241 94.0609 55.3057C94.1053 55.3052 94.1492 55.3125 94.1919 55.3275C94.2651 55.3082 94.3368 55.2606 94.4022 55.188C94.4769 55.1449 94.5537 55.1253 94.6292 55.1299C94.7207 55.0984 94.8111 55.0421 94.9024 55.0039C94.9629 54.9737 95.0241 54.9526 95.0854 54.9409C95.1387 54.9505 95.1908 54.9689 95.2412 54.996C95.3563 55.0003 95.473 54.968 95.5864 54.9005C95.7659 54.8277 95.9468 54.7799 96.1274 54.7577C96.1777 54.737 96.2287 54.7319 96.2782 54.7425C96.3283 54.7719 96.38 54.7944 96.4327 54.8099C96.5122 54.8 96.5918 54.7726 96.6697 54.7282C96.7605 54.7103 96.8512 54.7037 96.9412 54.7084L97.1582 54.719C97.2186 54.7199 97.2895 54.7659 97.3498 54.7015C97.3761 54.6813 97.4039 54.6717 97.4312 54.6735C97.4914 54.6615 97.5514 54.6604 97.6104 54.6703C97.7123 54.6842 97.8175 54.6337 97.9089 54.5273C97.9604 54.4545 98.0026 54.3613 98.0317 54.256C98.0607 54.1507 98.0756 54.0366 98.0752 53.924C98.0785 53.8419 98.073 53.7612 98.059 53.6864C98.045 53.6116 98.0227 53.5443 97.9934 53.4882C97.9785 53.4701 97.9626 53.4548 97.9458 53.4427C97.8799 53.4019 97.8111 53.3745 97.7405 53.361Z" fill="url(#paint1_linear_884_415)"/>
<path d="M99.8072 52.1171C99.7835 52.2561 99.7691 52.3978 99.7642 52.5392C99.7307 53.1833 99.6786 53.8275 99.6082 54.4694C99.5818 54.7946 99.5102 55.1373 99.4896 55.4754C99.479 55.6371 99.4909 55.7873 99.4791 55.9458C99.4686 56.2099 99.4329 56.4738 99.3735 56.726C99.3154 57.0187 99.2815 57.3207 99.273 57.6217C99.2574 57.8204 99.237 58.019 99.2116 58.2175C99.1746 58.5166 99.1133 58.8093 99.0877 59.1045C99.0689 59.4466 99.0326 59.7885 98.9792 60.1256C98.9505 60.2496 98.9281 60.3768 98.9123 60.5057C98.8952 60.6864 98.9158 60.8653 98.9018 61.0449C98.8897 61.1677 98.8702 61.2892 98.8435 61.4072C98.8013 61.6239 98.7701 61.8451 98.7504 62.0678C98.7343 62.2134 98.7337 62.3602 98.7487 62.4999C98.7568 62.5734 98.7735 62.6415 98.7977 62.6997C98.8219 62.7579 98.8531 62.805 98.8894 62.8381C98.9625 62.9119 99.0519 62.9285 99.1389 62.8843C99.2259 62.84 99.3038 62.7385 99.3564 62.6009C99.3782 62.5166 99.3947 62.4292 99.4056 62.3403C99.4294 62.2168 99.4705 62.1041 99.4945 61.9861C99.5311 61.777 99.5488 61.5622 99.5469 61.3506C99.5667 61.1367 99.5983 60.9246 99.6412 60.7174C99.6763 60.4692 99.6895 60.2024 99.7118 59.9493C99.7258 59.7746 99.745 59.6004 99.7692 59.4274C99.8024 59.2795 99.8369 59.1362 99.8726 58.9975C99.9319 58.68 99.9692 58.3547 99.9835 58.0294C100.011 57.527 100.068 57.0128 100.118 56.5102C100.128 56.3675 100.146 56.2253 100.172 56.0861C100.209 55.9453 100.241 55.8019 100.27 55.6565C100.291 55.4345 100.302 55.2116 100.303 54.9905C100.319 54.734 100.342 54.4823 100.364 54.2255L100.431 53.6221C100.466 53.4415 100.482 53.2541 100.476 53.0711C100.47 52.9967 100.471 52.92 100.478 52.8434C100.486 52.6721 100.499 52.5006 100.517 52.3297C100.548 52.0453 100.54 51.7594 100.495 51.4969C100.474 51.3795 100.433 51.2813 100.376 51.2169C100.319 51.1525 100.25 51.1251 100.179 51.1389C100.128 51.1496 100.078 51.1815 100.032 51.2321C99.9869 51.2827 99.9474 51.3506 99.917 51.4303C99.9038 51.4728 99.8928 51.5171 99.8841 51.5625C99.8518 51.746 99.8251 51.9316 99.8041 52.1182L99.8072 52.1171Z" fill="url(#paint2_linear_884_415)"/>
<path d="M95.4903 54.0402C93.4312 53.5065 91.248 53.9618 89.1589 55.3607C87.0698 56.7595 85.1479 59.0528 83.5853 62.0116C85.5492 62.6826 87.6675 62.2922 89.6801 60.8884C91.6926 59.4845 93.5118 57.1283 94.9142 54.1091" fill="url(#paint3_linear_884_415)"/>
<path d="M111.846 35.6528C111.77 35.6081 111.69 35.5796 111.608 35.5677C111.23 35.5124 110.868 35.3213 110.495 35.2216C110.299 35.1673 110.112 35.0399 109.916 35.0028L109.634 34.9934C109.48 34.978 109.33 34.9212 109.19 34.825C109.026 34.7308 108.852 34.6834 108.674 34.6843C108.562 34.6562 108.448 34.6309 108.334 34.5985C108.161 34.5497 107.988 34.4681 107.814 34.4439C107.61 34.4445 107.409 34.4183 107.21 34.3657C107.137 34.3279 107.062 34.303 106.985 34.2914C106.879 34.285 106.77 34.35 106.665 34.3487C106.595 34.3413 106.525 34.3229 106.457 34.2937C106.327 34.2537 106.194 34.2353 106.06 34.2387C105.972 34.2379 105.883 34.2677 105.798 34.3265C105.758 34.354 105.72 34.3968 105.688 34.4519C105.656 34.507 105.63 34.573 105.611 34.6455C105.577 34.8092 105.575 34.9834 105.605 35.1358C105.619 35.2084 105.641 35.2734 105.67 35.327C105.698 35.3807 105.733 35.4221 105.772 35.4487C105.821 35.4713 105.872 35.4844 105.924 35.488C105.994 35.5088 106.059 35.566 106.129 35.5851C106.243 35.6098 106.36 35.6056 106.477 35.5725C106.6 35.5785 106.722 35.6086 106.839 35.6624C106.983 35.6942 107.133 35.6813 107.277 35.6942C107.376 35.703 107.477 35.7145 107.575 35.7408C107.657 35.7785 107.738 35.8248 107.816 35.8795C107.994 35.9535 108.179 35.9914 108.366 35.9927C108.648 36.0206 108.944 36.0934 109.228 36.1706C109.31 36.1823 109.389 36.2105 109.465 36.2547C109.543 36.312 109.619 36.3702 109.7 36.4282C109.824 36.4649 109.95 36.4833 110.078 36.4834C110.22 36.5109 110.363 36.5518 110.502 36.6025L110.845 36.7339C110.94 36.7993 111.043 36.8316 111.149 36.8293C111.194 36.8224 111.238 36.8277 111.281 36.8449C111.378 36.8676 111.473 36.9001 111.566 36.9424C111.721 37.0148 111.888 37.0197 112.053 36.9565C112.123 36.9337 112.19 36.8674 112.242 36.7688C112.294 36.6702 112.328 36.5453 112.339 36.4149C112.344 36.3184 112.337 36.2238 112.318 36.1385C112.299 36.0531 112.27 35.9793 112.232 35.9228C112.209 35.8955 112.186 35.8719 112.161 35.8525C112.059 35.7724 111.954 35.7057 111.846 35.6528Z" fill="url(#paint4_linear_884_415)"/>
<path d="M113.069 35.1892C111.808 31.4581 110.754 27.4163 109.32 23.9587C108.022 20.4014 106.022 17.9686 103.66 17.0719C104.933 19.1902 105.421 22.9319 106.229 25.8648C107.487 30.5313 109.706 33.9296 112.468 35.4184" fill="url(#paint5_linear_884_415)"/>
<path d="M129.308 35.375C129.241 35.3908 129.174 35.4244 129.11 35.4746C128.813 35.7081 128.505 35.815 128.21 36.0375C128.052 36.1467 127.891 36.1956 127.737 36.3306C127.664 36.3957 127.602 36.4928 127.53 36.5557C127.415 36.6713 127.292 36.752 127.166 36.7945C127.024 36.8613 126.887 36.9761 126.762 37.1328C126.672 37.2227 126.582 37.3058 126.498 37.38C126.363 37.4947 126.222 37.5876 126.09 37.7264C125.947 37.91 125.798 38.0732 125.643 38.2142C125.581 38.2528 125.52 38.3029 125.462 38.3638C125.386 38.4557 125.328 38.6091 125.253 38.7054C125.201 38.7665 125.147 38.819 125.091 38.8621C124.988 38.9521 124.891 39.0623 124.8 39.1905C124.738 39.2707 124.685 39.372 124.643 39.4879C124.599 39.6199 124.582 39.7729 124.597 39.9143C124.606 40.0587 124.644 40.1859 124.703 40.2728C124.762 40.3597 124.839 40.4005 124.919 40.3876C124.959 40.3601 124.998 40.3235 125.034 40.2788C125.087 40.2276 125.146 40.2149 125.199 40.1704C125.285 40.0837 125.365 39.9731 125.435 39.843C125.519 39.7339 125.61 39.6444 125.704 39.5768C125.81 39.461 125.913 39.3345 126.013 39.1979C126.086 39.1115 126.161 39.0339 126.239 38.9659C126.304 38.9216 126.372 38.8874 126.439 38.8637C126.582 38.7631 126.719 38.6306 126.848 38.4695C127.06 38.2454 127.278 38.047 127.501 37.8758C127.561 37.8174 127.624 37.7759 127.688 37.7527C127.754 37.7395 127.819 37.7197 127.883 37.6934C127.98 37.6226 128.074 37.5362 128.163 37.4352C128.27 37.3466 128.379 37.2685 128.489 37.2015C128.58 37.1452 128.678 37.0986 128.764 37.0542C128.845 37.0367 128.926 36.9875 129.001 36.9101C129.031 36.8732 129.065 36.8463 129.099 36.8307C129.172 36.7806 129.247 36.7421 129.322 36.7155C129.451 36.6606 129.575 36.5463 129.68 36.3836C129.733 36.2977 129.773 36.1887 129.796 36.0692C129.819 35.9496 129.824 35.8243 129.811 35.7075C129.802 35.6234 129.783 35.5464 129.754 35.4828C129.725 35.4192 129.688 35.3708 129.645 35.3414C129.624 35.3331 129.602 35.3285 129.579 35.3275C129.489 35.3274 129.399 35.3433 129.308 35.375Z" fill="url(#paint6_linear_884_415)"/>
<path d="M149.614 52.712C149.454 52.6177 149.293 52.5358 149.116 52.4675C148.335 52.2213 147.554 51.8664 146.756 51.7242C146.339 51.6195 145.923 51.5072 145.5 51.471C145.301 51.4787 145.11 51.4856 144.911 51.493C144.569 51.4678 144.27 51.4878 143.938 51.4188C143.569 51.3764 143.195 51.3966 142.82 51.4791L142.072 51.6084C141.695 51.6502 141.312 51.7237 140.935 51.8171L139.649 52.2865C139.484 52.3106 139.319 52.3534 139.155 52.4147C138.932 52.5139 138.723 52.7001 138.502 52.8138C138.35 52.9005 138.192 52.9392 138.039 53.0164C137.761 53.1428 137.482 53.2893 137.209 53.4656C137.036 53.5786 136.867 53.7183 136.704 53.8829C136.575 53.9896 136.468 54.1759 136.403 54.4058C136.353 54.7564 136.576 54.9773 136.96 54.8352C137.066 54.7991 137.174 54.7155 137.28 54.6594C137.431 54.5782 137.58 54.5574 137.73 54.4962C137.969 54.3917 138.204 54.1949 138.435 54.0627C138.69 53.9266 138.947 53.8174 139.205 53.7355L140.121 53.347C140.33 53.2761 140.54 53.1944 140.751 53.1426C140.93 53.1062 141.109 53.0871 141.287 53.0854C141.676 53.0379 142.064 52.9327 142.452 52.8556C143.065 52.7387 143.677 52.6874 144.285 52.7022C144.457 52.6923 144.628 52.7067 144.796 52.7453C144.969 52.7896 145.141 52.8296 145.315 52.872C145.568 52.926 145.851 52.9051 146.11 52.9353C146.408 52.9655 146.702 53.0456 146.999 53.133C147.241 53.1891 147.479 53.2852 147.718 53.3639C147.926 53.46 148.138 53.5338 148.352 53.585C148.442 53.6 148.53 53.6257 148.617 53.6619C148.818 53.718 149.016 53.7949 149.21 53.8921C149.525 54.0498 149.848 54.1628 150.177 54.2302C150.433 54.2698 150.696 54.1471 150.685 53.8672C150.671 53.7293 150.64 53.6024 150.594 53.4962C150.547 53.3899 150.487 53.3072 150.417 53.2544L150.265 53.1274C150.055 52.9632 149.837 52.8244 149.614 52.712Z" fill="url(#paint7_linear_884_415)"/>
<path d="M145.11 52.5974C145.021 52.6772 144.935 52.772 144.853 52.8804C144.482 53.3973 144.078 53.8097 143.703 54.2968C143.503 54.5553 143.289 54.7545 143.095 55.0302L142.843 55.4439C142.699 55.6655 142.543 55.8564 142.379 56.0126C142.194 56.2055 142.02 56.4409 141.862 56.7124L141.524 57.1926C141.351 57.4308 141.164 57.6429 141.001 57.8983C140.819 58.2113 140.629 58.5056 140.431 58.7794C140.352 58.8686 140.275 58.9685 140.203 59.0781C140.104 59.2383 140.028 59.4474 139.94 59.6072C139.874 59.7153 139.803 59.8147 139.73 59.9045C139.599 60.0773 139.475 60.2671 139.358 60.4722C139.279 60.6019 139.211 60.7513 139.154 60.915C139.127 60.9912 139.108 61.0749 139.098 61.1613C139.087 61.2476 139.086 61.3348 139.094 61.4178C139.107 61.4959 139.129 61.5662 139.158 61.6244C139.187 61.6825 139.223 61.7272 139.264 61.7557C139.303 61.7822 139.347 61.7908 139.391 61.7809C139.434 61.771 139.478 61.7428 139.517 61.6984C139.571 61.6366 139.621 61.5665 139.669 61.4891C139.739 61.3952 139.818 61.3312 139.89 61.2333C140.003 61.0713 140.107 60.8873 140.2 60.6849C140.312 60.4974 140.432 60.3266 140.558 60.1745C140.698 59.9748 140.829 59.7261 140.964 59.5192C141.058 59.3697 141.151 59.2202 141.249 59.0882C141.335 58.985 141.423 58.89 141.514 58.8038C141.703 58.5732 141.883 58.3132 142.051 58.0271C142.318 57.6027 142.608 57.206 142.892 56.8258C142.97 56.7107 143.052 56.609 143.139 56.5222C143.232 56.4459 143.323 56.3609 143.412 56.2677C143.54 56.1031 143.662 55.9241 143.778 55.7318C143.912 55.5428 144.057 55.3623 144.201 55.187L144.563 54.7761C144.675 54.6741 144.779 54.5433 144.873 54.3879C144.908 54.3276 144.945 54.273 144.984 54.225C145.082 54.0989 145.182 53.9821 145.285 53.8753C145.454 53.6975 145.608 53.467 145.739 53.1952C145.796 53.0894 145.835 52.9563 145.85 52.8156C145.865 52.675 145.856 52.5344 145.825 52.4148C145.797 52.3374 145.757 52.2782 145.71 52.2435C145.663 52.2088 145.611 52.1998 145.558 52.2174C145.526 52.231 145.495 52.2482 145.465 52.2691C145.344 52.3647 145.225 52.4744 145.11 52.5974Z" fill="url(#paint8_linear_884_415)"/>
<path d="M139.937 41.4156C139.901 41.3137 139.857 41.2245 139.805 41.1511C139.593 40.7659 139.403 40.3396 139.24 39.8779C139.142 39.6513 139.091 39.3521 138.99 39.1208C138.946 39.0095 138.888 38.9323 138.846 38.8203C138.767 38.6433 138.71 38.4336 138.681 38.2043C138.637 37.9514 138.572 37.7167 138.487 37.508C138.442 37.3576 138.401 37.2016 138.365 37.0408C138.306 36.8001 138.278 36.5187 138.212 36.2933C138.13 36.0332 138.066 35.7528 138.021 35.4578C138.013 35.3392 137.998 35.2239 137.977 35.1139C137.943 34.971 137.881 34.8662 137.847 34.7084C137.826 34.6041 137.812 34.4937 137.807 34.3798C137.791 34.1765 137.764 33.9791 137.727 33.7906C137.707 33.6647 137.673 33.5511 137.627 33.4575C137.6 33.4097 137.568 33.374 137.532 33.3526C137.496 33.3312 137.456 33.3247 137.417 33.3334C137.329 33.3472 137.243 33.4195 137.175 33.5367C137.107 33.6538 137.062 33.8077 137.049 33.9693C137.05 34.0602 137.056 34.1494 137.068 34.2353C137.069 34.3615 137.074 34.4865 137.084 34.6097C137.104 34.7991 137.142 34.9765 137.197 35.1336C137.236 35.3236 137.264 35.5223 137.282 35.7268C137.326 35.9571 137.376 36.1772 137.431 36.3871C137.47 36.5333 137.504 36.6844 137.532 36.8397C137.555 36.9811 137.558 37.1145 137.575 37.2672C137.619 37.5639 137.688 37.8408 137.781 38.0882L138.153 39.3086C138.192 39.4193 138.225 39.5372 138.251 39.6609C138.272 39.806 138.297 39.9479 138.326 40.0859C138.386 40.2556 138.455 40.4125 138.532 40.5544L138.753 41.0877L138.929 41.5539C138.968 41.7054 139.026 41.8336 139.101 41.9279C139.133 41.9636 139.161 42.0096 139.184 42.064L139.353 42.402C139.437 42.6016 139.556 42.7422 139.694 42.8054C139.758 42.8306 139.829 42.8135 139.893 42.757C139.957 42.7005 140.011 42.6078 140.047 42.494C140.111 42.3257 140.139 42.1253 140.126 41.9364C140.117 41.8954 140.106 41.8567 140.093 41.8208C140.045 41.6798 139.993 41.5445 139.937 41.4156Z" fill="url(#paint9_linear_884_415)"/>
<path d="M133.12 31.7348C133.21 31.8194 133.305 31.8887 133.404 31.9419C133.86 32.2468 134.291 32.6461 134.69 33.1332C134.914 33.3557 135.089 33.7088 135.307 33.9552L135.604 34.308C135.767 34.5116 135.91 34.7633 136.028 35.0551C136.173 35.3759 136.332 35.6725 136.504 35.9421C136.611 36.1343 136.706 36.3504 136.802 36.5554C136.951 36.8747 137.064 37.2652 137.213 37.5845C137.388 37.9532 137.541 38.3562 137.671 38.7882C137.712 38.958 137.758 39.122 137.81 39.2796C137.887 39.4937 137.979 39.6695 138.053 39.8918C138.101 40.0451 138.14 40.2086 138.171 40.38C138.23 40.6952 138.299 41.0013 138.379 41.2968C138.424 41.4883 138.484 41.6646 138.556 41.8212C138.583 41.8921 138.62 41.9488 138.662 41.987C138.705 42.0252 138.753 42.044 138.803 42.0421C138.978 41.9912 139.113 41.6003 139.07 41.0874C139.053 40.9481 139.03 40.8127 139.002 40.682L138.909 40.1154C138.849 39.8207 138.768 39.5465 138.669 39.2994C138.582 39.0177 138.505 38.7255 138.436 38.4228C138.331 38.0854 138.213 37.7709 138.095 37.4636C138.011 37.2538 137.928 37.0441 137.853 36.8293L137.679 36.2389C137.539 35.8301 137.372 35.4603 137.18 35.1375C136.898 34.6141 136.61 34.0825 136.311 33.5984C136.23 33.4476 136.137 33.3335 136.061 33.179C135.985 33.0246 135.912 32.849 135.821 32.6982C135.68 32.5082 135.532 32.338 135.376 32.1889L134.873 31.6232C134.738 31.4602 134.593 31.3275 134.455 31.1727C134.341 31.0154 134.21 30.9007 134.068 30.8336C134.009 30.8088 133.952 30.7724 133.898 30.725L133.527 30.4544C133.332 30.2861 133.114 30.2062 132.888 30.2203C132.71 30.236 132.524 30.4322 132.514 30.7221C132.509 30.8395 132.517 30.9544 132.54 31.0578C132.563 31.1612 132.599 31.2503 132.645 31.3181C132.673 31.3534 132.702 31.3854 132.733 31.4139L133.12 31.7348Z" fill="url(#paint10_linear_884_415)"/>
<path d="M137.241 35.2791C137.918 32.2849 138.404 29.2222 138.689 26.147C139.221 22.9659 139.149 19.7309 138.484 16.9129C138.159 15.7259 137.687 14.6908 137.356 13.519C137.026 12.3473 136.374 11.339 136.62 9.93868C135.356 18.5692 135.393 27.2772 136.725 35.2477" fill="url(#paint11_linear_884_415)"/>
<path d="M163.4 74.2125C163.408 73.9543 163.407 73.6971 163.395 73.4427C163.322 72.2909 163.317 71.0838 163.217 69.9294C163.175 69.3158 163.157 68.6985 163.087 68.0938L162.956 67.2944C162.889 66.8384 162.842 66.3719 162.813 65.8982C162.772 65.3653 162.699 64.8468 162.594 64.3515L162.414 63.3629C162.337 62.8432 162.247 62.3273 162.141 61.8353C162.004 61.2779 161.861 60.7565 161.742 60.1785C161.704 59.9585 161.659 59.7433 161.608 59.534C161.53 59.2547 161.412 59.0215 161.33 58.7623C161.275 58.5718 161.227 58.3753 161.185 58.1737C161.096 57.8187 160.995 57.4747 160.882 57.1433C160.811 56.9368 160.725 56.7485 160.627 56.5822C160.59 56.5107 160.544 56.4566 160.491 56.4243C160.439 56.392 160.381 56.3825 160.324 56.3964C160.135 56.5012 160.024 56.9658 160.122 57.4698C160.155 57.6102 160.194 57.746 160.237 57.8764C160.29 58.0642 160.315 58.272 160.362 58.4619C160.446 58.7578 160.544 59.0407 160.653 59.3082C160.749 59.6175 160.83 59.9403 160.898 60.2742C160.988 60.6606 161.107 61.0322 161.204 61.4162C161.269 61.683 161.334 61.9494 161.391 62.2204C161.428 62.4572 161.457 62.6988 161.477 62.944C161.551 63.4743 161.674 63.976 161.771 64.4821C161.927 65.2873 162.056 66.112 162.156 66.9521C162.194 67.1878 162.219 67.431 162.232 67.6788C162.245 67.9338 162.246 68.1904 162.269 68.4402C162.301 68.8185 162.344 69.1913 162.4 69.557C162.445 69.978 162.471 70.3995 162.501 70.8388C162.518 71.1918 162.535 71.5466 162.545 71.902C162.543 72.2184 162.556 72.5319 162.586 72.8388C162.599 72.9646 162.605 73.0932 162.605 73.2232C162.622 73.5167 162.629 73.8133 162.626 74.1115C162.626 74.5926 162.658 75.0669 162.72 75.5252C162.776 75.8826 162.923 76.2022 163.075 76.0831C163.139 76.0272 163.195 75.9457 163.24 75.8459C163.284 75.7461 163.314 75.6312 163.328 75.5113L163.36 75.2571C163.386 74.9085 163.399 74.5597 163.4 74.2125Z" fill="url(#paint12_linear_884_415)"/>
<path d="M162.493 64.5474C162.505 64.4121 162.507 64.2762 162.499 64.1432C162.458 63.5315 162.499 62.8929 162.487 62.2667C162.483 61.9464 162.524 61.614 162.508 61.2974C162.501 61.1455 162.474 61.0182 162.469 60.8525C162.451 60.6035 162.458 60.3471 162.489 60.0942C162.517 59.8003 162.517 59.505 162.488 59.2202C162.477 59.03 162.474 58.8373 162.48 58.6436C162.483 58.3532 162.505 58.0567 162.495 57.7702C162.469 57.4505 162.46 57.1249 162.468 56.7971C162.481 56.6702 162.486 56.5425 162.484 56.4161C162.475 56.2458 162.427 56.0896 162.415 55.9203C162.411 55.8019 162.414 55.682 162.423 55.5624C162.435 55.3461 162.434 55.1303 162.419 54.9186C162.413 54.7798 162.389 54.6474 162.351 54.5297C162.33 54.4684 162.301 54.417 162.266 54.3787C162.231 54.3404 162.191 54.3163 162.149 54.3078C162.059 54.2859 161.965 54.321 161.883 54.4068C161.802 54.4926 161.738 54.6234 161.704 54.7755C161.694 54.8587 161.69 54.9426 161.691 55.0257C161.688 55.1564 161.659 55.2686 161.651 55.3896C161.646 55.5825 161.658 55.7729 161.688 55.9535C161.7 56.1539 161.698 56.3581 161.684 56.5622C161.684 56.7992 161.708 57.0399 161.72 57.2769C161.728 57.4422 161.73 57.609 161.728 57.7766C161.719 57.9149 161.706 58.053 161.69 58.1905C161.672 58.497 161.676 58.8028 161.703 59.1003C161.727 59.5724 161.733 60.0595 161.735 60.5364C161.739 60.6707 161.736 60.8068 161.723 60.9423C161.702 61.0843 161.684 61.2269 161.671 61.3701C161.671 61.5809 161.682 61.7897 161.703 61.9941C161.714 62.2274 161.713 62.4684 161.712 62.7057C161.711 62.943 161.705 63.0991 161.699 63.2889C161.676 63.4614 161.674 63.6369 161.693 63.8041C161.703 63.8739 161.706 63.9469 161.704 64.0207C161.715 64.1911 161.72 64.3635 161.719 64.5369C161.71 64.8047 161.741 65.0656 161.808 65.2955C161.841 65.4013 161.893 65.4835 161.957 65.5303C162.022 65.577 162.095 65.586 162.167 65.5558C162.219 65.5372 162.27 65.4985 162.314 65.4428C162.359 65.3871 162.396 65.3158 162.424 65.2342C162.434 65.1899 162.443 65.1446 162.449 65.0986C162.471 64.9157 162.486 64.7315 162.493 64.5474Z" fill="url(#paint13_linear_884_415)"/>
<path d="M160.612 57.4616C156.532 51.5507 153.175 44.1795 150.7 35.6964C151.836 36.4516 153.004 37.077 154.2 37.5695C156.277 38.9725 157.904 41.7662 158.794 45.4551C159.719 49.2414 160.377 53.284 160.754 57.498" fill="url(#paint14_linear_884_415)"/>
<path d="M174.671 125.028C174.654 124.626 174.636 124.224 174.595 123.8C174.422 121.935 174.195 120.099 173.914 118.3C173.768 117.364 173.623 116.433 173.44 115.52L173.13 114.328C172.97 113.604 172.801 113.022 172.665 112.29C172.492 111.51 172.285 110.764 172.045 110.056L171.587 108.641C171.362 107.916 171.118 107.2 170.869 106.513L169.937 104.287C169.82 103.996 169.714 103.698 169.587 103.425C169.412 103.055 169.209 102.777 169.03 102.42C168.904 102.181 168.799 101.9 168.673 101.654C168.455 101.181 168.227 100.738 167.99 100.325C167.841 100.068 167.68 99.8343 167.508 99.6276C167.395 99.4543 167.244 99.3739 167.087 99.4029C166.893 99.5465 166.911 100.144 167.193 100.792C167.271 100.971 167.369 101.13 167.459 101.299C167.582 101.539 167.678 101.811 167.794 102.061C167.978 102.467 168.206 102.788 168.4 103.161C168.627 103.576 168.791 104.005 168.988 104.442L169.681 105.979L170.133 107.099C170.248 107.43 170.354 107.772 170.451 108.125C170.687 108.865 170.944 109.574 171.195 110.3C171.582 111.455 171.928 112.659 172.23 113.906C172.324 114.244 172.403 114.596 172.467 114.962L172.664 116.115C172.764 116.667 172.907 117.239 173.019 117.788C173.151 118.422 173.242 119.094 173.347 119.752C173.434 120.292 173.486 120.844 173.556 121.41C173.616 121.874 173.646 122.468 173.719 122.892C173.751 123.097 173.777 123.307 173.797 123.519C173.849 123.975 173.886 124.439 173.909 124.91C173.959 125.677 174.03 126.49 174.114 127.191C174.189 127.783 174.353 128.283 174.493 128.088C174.561 127.957 174.615 127.804 174.651 127.639C174.687 127.475 174.705 127.302 174.702 127.133L174.711 126.73C174.718 126.158 174.705 125.589 174.671 125.028Z" fill="url(#paint15_linear_884_415)"/>
<path d="M168.097 99.732C166.696 100.14 165.296 100.295 163.918 100.195C162.677 99.9578 161.568 98.9748 160.753 97.3891C159.999 95.3686 159.374 93.1753 158.888 90.845C158.2 88.3955 157.172 86.3852 155.892 84.9889C158.55 85.5677 161.093 86.8686 163.444 88.8517C165.772 91.0542 167.434 94.9387 168.097 99.732Z" fill="url(#paint16_linear_884_415)"/>
<path d="M100.212 61.1909C99.8323 61.4438 99.4752 61.8337 99.1647 62.3343C98.8541 62.835 98.5974 63.4348 98.4117 64.0933C98.0198 65.4603 97.7311 66.8927 97.5543 68.3471C96.5788 75.0712 95.8813 81.8434 95.4678 88.6048C96.9117 86.4789 98.2588 84.1367 99.4907 81.6104C100.693 79.2958 101.536 76.4863 101.912 73.5393C102.218 68.9969 101.642 64.6414 100.283 61.2214" fill="url(#paint17_linear_884_415)"/>
<path d="M137.292 53.4359C134.423 53.2528 131.457 55.0187 128.959 58.3971C126.2 61.833 124.001 66.6434 122.691 72.1093C124.895 70.2778 127.171 68.8875 129.474 67.966C131.212 67.067 132.858 65.3907 134.25 63.102C135.858 60.3319 137.049 56.8817 137.674 53.1787" fill="url(#paint18_linear_884_415)"/>
<path d="M133.431 29.3398C132.14 24.9658 129.972 21.8085 127.308 20.4216C124.736 19.1537 122.039 18.5111 119.278 18.5088C122.628 26.0119 128.288 30.6843 133.267 29.4825" fill="url(#paint19_linear_884_415)"/>
<path d="M161.219 55.9369C162.557 53.8283 163.674 51.3128 164.497 48.5489C165.321 45.785 165.834 42.8326 166.005 39.8775C166.303 34.9142 165.47 30.6317 166.09 25.6906C162.165 34.8423 160.242 45.8586 160.745 56.3167" fill="url(#paint20_linear_884_415)"/>
<path d="M165.789 128.436C165.644 118.48 162.272 110.832 157.444 109.533C156.366 109.548 155.307 109.349 154.286 108.94C155.764 113.923 157.78 118.209 160.231 121.581C162.215 123.893 164.687 124.99 166.152 128.497" fill="url(#paint21_linear_884_415)"/>
<path d="M171.385 177.606C171.397 176.919 171.402 176.237 171.39 175.502C171.312 172.288 171.288 169.013 171.118 165.807C171.036 164.119 170.955 162.436 170.846 160.75L170.628 158.459C170.521 157.102 170.399 155.951 170.318 154.622C170.206 153.154 170.054 151.706 169.861 150.276L169.499 147.427C169.326 145.966 169.124 144.527 168.919 143.097L168.099 138.274C167.999 137.662 167.906 137.043 167.792 136.441C167.633 135.617 167.427 134.869 167.259 134.051L166.929 132.343C166.721 131.322 166.512 130.295 166.275 129.299C166.116 128.658 165.95 128.012 165.777 127.478C165.673 127.063 165.511 126.703 165.303 126.427C165.058 126.281 165.021 127.152 165.289 128.58C165.364 128.976 165.465 129.374 165.553 129.77C165.675 130.314 165.766 130.892 165.873 131.455C166.047 132.365 166.276 133.218 166.472 134.105C166.692 135.104 166.843 136.004 167.022 136.993L167.666 140.446L168.061 142.844C168.177 143.567 168.227 144.204 168.32 144.92L168.922 149.443C169.236 151.787 169.494 154.225 169.71 156.633C169.779 157.313 169.835 158.003 169.869 158.68L169.972 160.815C170.022 161.852 170.133 162.958 170.206 164.006C170.294 165.198 170.335 166.423 170.387 167.636C170.436 168.632 170.446 169.652 170.474 170.632C170.5 171.472 170.487 172.516 170.533 173.296C170.552 173.633 170.558 174.044 170.567 174.408C170.591 175.237 170.591 176.068 170.584 176.903C170.582 178.255 170.602 179.703 170.647 180.953C170.696 181.987 170.832 182.933 170.993 182.642C171.174 182.186 171.273 181.659 171.277 181.129L171.318 180.453C171.368 179.484 171.375 178.57 171.385 177.606Z" fill="url(#paint22_linear_884_415)"/>
<path d="M91.9179 67.6756C90.7909 67.618 89.6322 68.0536 88.5341 68.948C87.436 69.8423 86.4287 71.1706 85.5924 72.8272C83.827 76.3232 82.5064 80.4595 81.7526 84.8534C80.9814 89.3181 80.4003 93.8371 80.0151 98.3663C81.3278 93.8849 84.1147 90.7346 86.2076 87.6133C87.7881 84.9347 89.0952 81.7563 90.0456 78.2803C90.9961 74.8044 91.5691 71.1071 91.7281 67.4238" fill="url(#paint23_linear_884_415)"/>
<path d="M125.944 38.5535C124.026 40.7558 122.023 42.6366 119.961 44.1689C118.185 46.0046 116.628 48.5798 115.437 51.6506C114.21 54.7895 113.11 58.0676 112.146 61.4535C114.802 57.3951 118.927 58.2841 121.691 54.5595C122.926 52.7604 123.902 50.4145 124.499 47.806C125.155 44.8985 125.682 41.9308 126.077 38.9346" fill="url(#paint24_linear_884_415)"/>
<path d="M172.791 132.739C175.233 124.377 177.049 115.672 178.194 106.849C179.341 97.9509 178.402 89.1742 175.578 82.4136C173.074 86.563 172.191 92.5336 171.92 98.3C171.803 104.032 172.077 109.669 172.738 115.103C173.398 120.545 173.533 126.255 173.139 132.031" fill="url(#paint25_linear_884_415)"/>
<path d="M169.046 148.814C165.95 150.683 162.892 148.357 160.578 144.851C158.264 141.345 156.447 136.704 154.156 133.154C155.211 134.094 156.469 134.263 157.712 133.631C158.879 133.141 160.054 132.979 161.194 133.151C163.055 134.233 164.532 136.606 165.347 139.824C166.173 143.054 167.371 145.843 168.872 148.024" fill="url(#paint26_linear_884_415)"/>
<path d="M169.263 159.684C169.451 153.728 172.496 147.331 173.083 141.359C173.732 134.741 171.862 128.86 169.688 124.193C168.79 130.434 169.958 136.937 170.194 143.077C170.262 148.24 169.964 153.488 169.307 158.713" fill="url(#paint27_linear_884_415)"/>
<path d="M106.867 34.0182C106.554 33.1354 106.121 32.4092 105.599 31.8889C105.077 31.3687 104.478 31.0669 103.843 31.004C102.441 30.7596 100.992 30.8989 99.5486 31.417C96.5308 32.2966 93.5213 33.5329 90.5422 35.117C92.2891 36.8646 94.2968 37.8745 96.4257 38.0765C98.5547 38.2786 100.754 37.6679 102.87 36.2869C104.16 35.2142 105.507 34.4518 106.868 34.024" fill="url(#paint28_linear_884_415)"/>
<path d="M139.976 61.1838C136.473 69.1006 133.65 75.7414 133.208 87.4786C134.277 84.9465 135.485 82.6093 136.808 80.514C138.142 78.9486 139.373 77.0637 140.462 74.9187C141.594 72.6326 142.265 69.7566 142.335 66.8861C142.376 65.4937 142.167 64.1831 141.741 63.1533C141.315 62.1236 140.695 61.4308 139.975 61.1803" fill="url(#paint29_linear_884_415)"/>
<path d="M168.941 188.687C171 183.402 174.383 181.057 176.818 176.438C179.857 170.673 181.016 162.116 181.219 154.302C179.754 159.306 176.809 163.283 175.385 168.331C174.472 171.578 174.17 175.361 173.024 178.341C172.321 179.943 171.541 181.431 170.695 182.782C169.835 184.187 169.212 186.012 168.921 187.973" fill="url(#paint30_linear_884_415)"/>
</g>
</g>
<defs>
<linearGradient id="paint0_linear_884_415" x1="126.687" y1="168.835" x2="54.0576" y2="54.0548" gradientUnits="userSpaceOnUse">
<stop stop-color="#BEC426"/>
<stop offset="1" stop-color="#0D412B"/>
</linearGradient>
<linearGradient id="paint1_linear_884_415" x1="95.5081" y1="54.9249" x2="94.9175" y2="53.446" gradientUnits="userSpaceOnUse">
<stop stop-color="#BEC426"/>
<stop offset="1" stop-color="#0D412B"/>
</linearGradient>
<linearGradient id="paint2_linear_884_415" x1="99.5207" y1="59.8049" x2="94.3184" y2="54.5008" gradientUnits="userSpaceOnUse">
<stop stop-color="#BEC426"/>
<stop offset="1" stop-color="#0D412B"/>
</linearGradient>
<linearGradient id="paint3_linear_884_415" x1="88.3482" y1="60.054" x2="86.2753" y2="55.3416" gradientUnits="userSpaceOnUse">
<stop stop-color="#BEC426"/>
<stop offset="1" stop-color="#0D412B"/>
</linearGradient>
<linearGradient id="paint4_linear_884_415" x1="108.325" y1="37.032" x2="106.682" y2="33.3942" gradientUnits="userSpaceOnUse">
<stop stop-color="#BEC426"/>
<stop offset="1" stop-color="#0D412B"/>
</linearGradient>
<linearGradient id="paint5_linear_884_415" x1="107.67" y1="31.6624" x2="98.4309" y2="18.5515" gradientUnits="userSpaceOnUse">
<stop stop-color="#BEC426"/>
<stop offset="1" stop-color="#0D412B"/>
</linearGradient>
<linearGradient id="paint6_linear_884_415" x1="126.688" y1="38.863" x2="125.562" y2="36.2783" gradientUnits="userSpaceOnUse">
<stop stop-color="#BEC426"/>
<stop offset="1" stop-color="#0D412B"/>
</linearGradient>
<linearGradient id="paint7_linear_884_415" x1="142.115" y1="55.5845" x2="140.418" y2="51.2213" gradientUnits="userSpaceOnUse">
<stop stop-color="#BEC426"/>
<stop offset="1" stop-color="#0D412B"/>
</linearGradient>
<linearGradient id="paint8_linear_884_415" x1="141.815" y1="58.9993" x2="139.224" y2="53.7778" gradientUnits="userSpaceOnUse">
<stop stop-color="#BEC426"/>
<stop offset="1" stop-color="#0D412B"/>
</linearGradient>
<linearGradient id="paint9_linear_884_415" x1="138.416" y1="40.6302" x2="133.81" y2="35.0913" gradientUnits="userSpaceOnUse">
<stop stop-color="#BEC426"/>
<stop offset="1" stop-color="#0D412B"/>
</linearGradient>
<linearGradient id="paint10_linear_884_415" x1="135.307" y1="39.7115" x2="129.512" y2="30.8987" gradientUnits="userSpaceOnUse">
<stop stop-color="#BEC426"/>
<stop offset="1" stop-color="#0D412B"/>
</linearGradient>
<linearGradient id="paint11_linear_884_415" x1="137.258" y1="28.6521" x2="125.843" y2="19.8756" gradientUnits="userSpaceOnUse">
<stop stop-color="#BEC426"/>
<stop offset="1" stop-color="#0D412B"/>
</linearGradient>
<linearGradient id="paint12_linear_884_415" x1="161.773" y1="71.1771" x2="152.624" y2="64.4952" gradientUnits="userSpaceOnUse">
<stop stop-color="#BEC426"/>
<stop offset="1" stop-color="#0D412B"/>
</linearGradient>
<linearGradient id="paint13_linear_884_415" x1="162.089" y1="62.6575" x2="157.22" y2="59.4886" gradientUnits="userSpaceOnUse">
<stop stop-color="#BEC426"/>
<stop offset="1" stop-color="#0D412B"/>
</linearGradient>
<linearGradient id="paint14_linear_884_415" x1="155.018" y1="53.079" x2="143.935" y2="38.0936" gradientUnits="userSpaceOnUse">
<stop stop-color="#BEC426"/>
<stop offset="1" stop-color="#0D412B"/>
</linearGradient>
<linearGradient id="paint15_linear_884_415" x1="170.524" y1="121.39" x2="156.282" y2="106.319" gradientUnits="userSpaceOnUse">
<stop stop-color="#BEC426"/>
<stop offset="1" stop-color="#0D412B"/>
</linearGradient>
<linearGradient id="paint16_linear_884_415" x1="160.978" y1="97.4797" x2="153.22" y2="84.631" gradientUnits="userSpaceOnUse">
<stop stop-color="#BEC426"/>
<stop offset="1" stop-color="#0D412B"/>
</linearGradient>
<linearGradient id="paint17_linear_884_415" x1="98.0338" y1="80.9841" x2="86.6758" y2="67.3274" gradientUnits="userSpaceOnUse">
<stop stop-color="#E8BB41"/>
<stop offset="1" stop-color="#AC0FB9"/>
</linearGradient>
<linearGradient id="paint18_linear_884_415" x1="128.686" y1="66.2324" x2="123.829" y2="56.486" gradientUnits="userSpaceOnUse">
<stop stop-color="#E8BB41"/>
<stop offset="1" stop-color="#AC0FB9"/>
</linearGradient>
<linearGradient id="paint19_linear_884_415" x1="125.093" y1="28.4437" x2="118.893" y2="17.0593" gradientUnits="userSpaceOnUse">
<stop stop-color="#E8BB41"/>
<stop offset="1" stop-color="#AC0FB9"/>
</linearGradient>
<linearGradient id="paint20_linear_884_415" x1="163.01" y1="48.0476" x2="150.075" y2="34.1492" gradientUnits="userSpaceOnUse">
<stop stop-color="#E8BB41"/>
<stop offset="1" stop-color="#AC0FB9"/>
</linearGradient>
<linearGradient id="paint21_linear_884_415" x1="159.292" y1="124.938" x2="149.228" y2="109.869" gradientUnits="userSpaceOnUse">
<stop stop-color="#E8BB41"/>
<stop offset="1" stop-color="#AC0FB9"/>
</linearGradient>
<linearGradient id="paint22_linear_884_415" x1="168.932" y1="168.267" x2="148.156" y2="159.327" gradientUnits="userSpaceOnUse">
<stop stop-color="#BEC426"/>
<stop offset="1" stop-color="#0D412B"/>
</linearGradient>
<linearGradient id="paint23_linear_884_415" x1="84.8549" y1="89.6144" x2="74.0646" y2="72.9751" gradientUnits="userSpaceOnUse">
<stop stop-color="#BEC426"/>
<stop offset="1" stop-color="#0D412B"/>
</linearGradient>
<linearGradient id="paint24_linear_884_415" x1="117.744" y1="54.7205" x2="111.219" y2="42.6773" gradientUnits="userSpaceOnUse">
<stop stop-color="#BEC426"/>
<stop offset="1" stop-color="#0D412B"/>
</linearGradient>
<linearGradient id="paint25_linear_884_415" x1="175.119" y1="119.12" x2="152.889" y2="100.933" gradientUnits="userSpaceOnUse">
<stop stop-color="#BEC426"/>
<stop offset="1" stop-color="#0D412B"/>
</linearGradient>
<linearGradient id="paint26_linear_884_415" x1="160.327" y1="146.749" x2="151.875" y2="132.31" gradientUnits="userSpaceOnUse">
<stop stop-color="#BEC426"/>
<stop offset="1" stop-color="#0D412B"/>
</linearGradient>
<linearGradient id="paint27_linear_884_415" x1="170.779" y1="149.987" x2="154.963" y2="137.678" gradientUnits="userSpaceOnUse">
<stop stop-color="#BEC426"/>
<stop offset="1" stop-color="#0D412B"/>
</linearGradient>
<linearGradient id="paint28_linear_884_415" x1="101.369" y1="37.6625" x2="98.8096" y2="32.0581" gradientUnits="userSpaceOnUse">
<stop stop-color="#442F9B"/>
<stop offset="1" stop-color="#54B597"/>
</linearGradient>
<linearGradient id="paint29_linear_884_415" x1="139.679" y1="86.6632" x2="127.332" y2="73.1741" gradientUnits="userSpaceOnUse">
<stop stop-color="#442F9B"/>
<stop offset="1" stop-color="#54B597"/>
</linearGradient>
<linearGradient id="paint30_linear_884_415" x1="177.776" y1="187.363" x2="162.461" y2="169.777" gradientUnits="userSpaceOnUse">
<stop stop-color="#442F9B"/>
<stop offset="1" stop-color="#54B597"/>
</linearGradient>
<clipPath id="clip0_884_415">
<rect width="256" height="256" fill="white"/>
</clipPath>
</defs>
</svg>
